<?xml version="1.0" encoding="UTF-8"?>
<svg width="72px" height="72px" viewBox="0 0 72 72" version="1.1" xmlns="http://www.w3.org/2000/svg" xmlns:xlink="http://www.w3.org/1999/xlink">
    <!-- Generator: Sketch 53.2 (72643) - https://sketchapp.com -->
    <title>space</title>
    <desc>Created with Sketch.</desc>
    <defs>
        <linearGradient x1="30.691%" y1="0.024%" x2="50%" y2="88.244%" id="linearGradient-1">
            <stop stop-color="#FFF73A" offset="0%"></stop>
            <stop stop-color="#11E9CF" offset="100%"></stop>
        </linearGradient>
        <linearGradient x1="0.788%" y1="47.589%" x2="72.96%" y2="67.743%" id="linearGradient-2">
            <stop stop-color="#B7FF1D" offset="0%"></stop>
            <stop stop-color="#2787FF" offset="100%"></stop>
        </linearGradient>
        <linearGradient x1="7.491%" y1="74.674%" x2="77.29%" y2="9.172%" id="linearGradient-3">
            <stop stop-color="#51CBFF" offset="0%"></stop>
            <stop stop-color="#003FB9" offset="100%"></stop>
        </linearGradient>
    </defs>
    <g id="Page-1" stroke="none" stroke-width="1" fill="none" fill-rule="evenodd">
        <g id="jb" transform="translate(-301.000000, -41.000000)" fill-rule="nonzero">
            <g id="space" transform="translate(301.000000, 40.000000)">
                <g id="Group">
                    <path d="M13.038,73 C38.6669247,70.7567754 61.147868,55.0000599 72,31.674 C57.2402657,10.6063874 32.3591467,-0.982689983 6.735,1.275 C-4.119,24.6 -1.738,51.917 13.038,73 Z" id="Path" fill="url(#linearGradient-1)"></path>
                    <path d="M6.806,1.276 C6.806,1.276 29.634,9.331 44.69,31.675 L72,31.675 C58.505,12.326 36.457,1 13.11,1 C11.017,1 8.914,1.09 6.806,1.275 L6.806,1.276 Z" id="Path" fill="url(#linearGradient-2)"></path>
                    <path d="M44.693,31.675 C41.4,53.445 13.037,73 13.037,73 C38.824,70.553 61.451,55.094 72,31.667 L44.693,31.675 Z" id="Path" fill="url(#linearGradient-3)"></path>
                </g>
            </g>
        </g>
    </g>
</svg>