<?xml version="1.0" encoding="utf-8"?>
<!-- Generator: Adobe Illustrator 22.0.1, SVG Export Plug-In . SVG Version: 6.00 Build 0)  -->
<svg version="1.1" id="Layer_1" xmlns="http://www.w3.org/2000/svg" xmlns:xlink="http://www.w3.org/1999/xlink" x="0px" y="0px"
	 viewBox="0 0 90 90" style="enable-background:new 0 0 90 90;" xml:space="preserve">
<style type="text/css">
	.st0{fill:url(#SVGID_1_);}
	.st1{clip-path:url(#SVGID_3_);}
	.st2{fill:#FFFFFF;}
	.st3{fill:#231F20;}
</style>
<title>JB_community</title>
<g>
	
		<linearGradient id="SVGID_1_" gradientUnits="userSpaceOnUse" x1="4.8651" y1="67.373" x2="104.136" y2="16.9817" gradientTransform="matrix(1 0 0 -1 0 92)">
		<stop  offset="0.2598" style="stop-color:#EE2AC4"/>
		<stop  offset="1" style="stop-color:#008FE4"/>
	</linearGradient>
	<circle class="st0" cx="45" cy="45" r="45"/>
	<g>
		<defs>
			<circle id="SVGID_2_" cx="45" cy="45" r="45"/>
		</defs>
		<clipPath id="SVGID_3_">
			<use xlink:href="#SVGID_2_"  style="overflow:visible;"/>
		</clipPath>
		<g class="st1">
			<g>
				<path class="st2" d="M18.9,73.9h49.9l0.4-19.2c0.3-3.2-0.7-6.5-2.9-8.9c-2.7-2.9-7.2-4.6-12.1-4.6H33.8c-4.9,0-9.5,1.7-12.1,4.6
					c-2.2,2.4-3.2,5.7-2.9,8.9L18.9,73.9z"/>
				<path d="M16.2,76.1h3.2l-0.1-21.3l0-0.1c-0.3-3.1,0.7-6.2,2.8-8.5c2.6-2.8,7-4.4,11.8-4.4h20.3c4.8,0,9.2,1.7,11.8,4.4
					c2.1,2.3,3.1,5.4,2.8,8.5l-0.4,21.4h3.2l0.4-21.2c0.6-11.1-8.6-16.3-17.7-16.3H33.8c-9.1,0-18.3,5.2-17.7,16.3L16.2,76.1z"/>
				<path d="M82.5,79.3c0-5.9-4.8-10.7-10.7-10.7l0,0c-5.9,0-10.7,4.8-10.7,10.7H82.5z"/>
				<g>
					<path class="st2" d="M62.5,26.8c3,0,5.7,1.7,7,4.4c1.2-0.5,2.6,0.2,3.1,1.4c0.5,1.2-0.2,2.6-1.4,3.1c-0.3,0.1-0.5,0.1-0.8,0.1
						c0,0-0.1,0-0.1,0c-0.6,4.3-4.6,7.3-8.9,6.7c-4.3-0.6-7.3-4.6-6.7-8.9C55.3,29.7,58.6,26.8,62.5,26.8z"/>
					<path class="st2" d="M62.5,42c-4.1,0-7.3-3.3-7.3-7.3c0-4.1,3.3-7.3,7.3-7.3c2.8,0,5.3,1.6,6.6,4.1l0.2,0.4l0.5-0.2
						c1-0.4,2,0.1,2.4,1.1c0.4,1-0.1,2-1.1,2.4c-0.2,0.1-0.4,0.1-0.6,0.1h-0.5l-0.1,0.5C69.2,39.3,66.2,42,62.5,42z"/>
					<path d="M70.4,31c-0.3,0-0.6,0.1-0.8,0.2c-1.9-3.9-6.7-5.5-10.6-3.5s-5.5,6.7-3.5,10.6c1.9,3.9,6.7,5.5,10.6,3.5
						c2.3-1.2,3.9-3.4,4.3-5.9c0,0,0.1,0,0.1,0c1.3,0,2.4-1.1,2.4-2.4C72.8,32.1,71.7,31,70.4,31z M70.4,34.7h-0.9l-0.2,0.9
						c-0.5,3.7-4,6.3-7.7,5.8c-3.7-0.5-6.3-4-5.8-7.7c0.5-3.7,4-6.3,7.7-5.8c2.2,0.3,4.1,1.7,5.1,3.7l0.4,0.9l0.9-0.3
						c0.7-0.3,1.4,0.1,1.7,0.8c0.3,0.7-0.1,1.4-0.8,1.7C70.7,34.7,70.6,34.7,70.4,34.7z"/>
					<path d="M62.5,26.8c3,0,5.7,1.7,7,4.4c1.2-0.5,2.6,0.2,3.1,1.4c0.5,1.2-0.2,2.6-1.4,3.1c-0.3,0.1-0.5,0.1-0.8,0.1
						c0,0-0.1,0-0.1,0c-0.5,3.9-3.9,6.8-7.8,6.8h13.1c3.6,0,7.9-2.9,7.9-7.3v-8.5H62.5z"/>
					<path d="M61.1,33.6l0,1.2c0,0.3,0.3,0.6,0.6,0.6c0,0,0,0,0,0l0,0c0.3,0,0.6-0.3,0.6-0.6c0,0,0,0,0,0l0-1.2
						c0-0.3-0.3-0.6-0.6-0.6c0,0,0,0,0,0l0,0C61.3,33.1,61.1,33.3,61.1,33.6C61.1,33.6,61.1,33.6,61.1,33.6z"/>
					<path d="M56.7,33.6l0,1.2c0,0.3,0.3,0.6,0.6,0.6c0,0,0,0,0,0l0,0c0.3,0,0.6-0.3,0.6-0.6c0,0,0,0,0,0l0-1.2
						c0-0.3-0.3-0.6-0.6-0.6c0,0,0,0,0,0l0,0C57,33.1,56.7,33.3,56.7,33.6C56.7,33.6,56.7,33.6,56.7,33.6z"/>
					<path d="M56.9,29.1C60,26,65,26,68.1,29.1c0,0,0,0,0,0H56.9z"/>
				</g>
				<g>
					<path class="st2" d="M49,30.9c-0.3,0-0.6,0.1-0.8,0.2c-1.9-3.9-6.6-5.5-10.5-3.6c-1.5,0.8-2.8,2-3.6,3.5
						c-1.3-0.4-2.6,0.4-3,1.6c-0.4,1.3,0.4,2.6,1.6,3c0.2,0.1,0.4,0.1,0.5,0.1c0.6,4.3,4.6,7.3,8.9,6.8c3.5-0.5,6.3-3.2,6.8-6.8
						c0,0,0.1,0,0.1,0c1.3,0,2.4-1.1,2.4-2.4C51.4,32,50.4,30.9,49,30.9z"/>
					<path class="st2" d="M41.2,42c-3.7,0-6.8-2.7-7.3-6.4l-0.1-0.4l-0.4,0c-1,0-1.8-0.9-1.8-1.9c0-1,0.9-1.8,1.9-1.8
						c0.2,0,0.3,0,0.5,0.1l0.4,0.1l0.2-0.4c1.8-3.6,6.2-5.1,9.8-3.3c1.4,0.7,2.6,1.9,3.3,3.3l0.2,0.4l0.4-0.2c1-0.4,2,0.1,2.4,1.1
						c0.4,1-0.1,2-1.1,2.4c-0.2,0.1-0.4,0.1-0.6,0.1h-0.5l-0.1,0.5C47.9,39.3,44.8,42,41.2,42z"/>
					<path d="M41.8,33.6l0,1.2c0,0.3,0.3,0.6,0.6,0.6c0,0,0,0,0,0l0,0c0.3,0,0.6-0.3,0.6-0.6c0,0,0,0,0,0l0-1.2
						c0-0.3-0.3-0.6-0.6-0.6c0,0,0,0,0,0l0,0C42,33.1,41.8,33.3,41.8,33.6C41.8,33.6,41.8,33.6,41.8,33.6z"/>
					<path d="M37.4,33.6l0,1.2c0,0.3,0.3,0.6,0.6,0.6c0,0,0,0,0,0l0,0c0.3,0,0.6-0.3,0.6-0.6c0,0,0,0,0,0l0-1.2
						c0-0.3-0.3-0.6-0.6-0.6c0,0,0,0,0,0l0,0C37.7,33.1,37.4,33.3,37.4,33.6C37.4,33.6,37.4,33.6,37.4,33.6z"/>
					<path d="M49,30.9c-0.3,0-0.6,0.1-0.8,0.2c-1.9-3.9-6.6-5.5-10.5-3.6c-1.5,0.8-2.8,2-3.6,3.5c-1.3-0.4-2.6,0.4-3,1.6
						c-0.4,1.3,0.4,2.6,1.6,3c0.2,0.1,0.4,0.1,0.5,0.1c0.6,4.3,4.6,7.3,8.9,6.8c3.5-0.5,6.3-3.2,6.8-6.8c0,0,0.1,0,0.1,0
						c1.3,0,2.4-1.1,2.4-2.4C51.4,32,50.4,30.9,49,30.9z M49,34.6h-0.9l-0.2,0.9c-0.5,3.7-3.9,6.3-7.7,5.8c-3-0.4-5.4-2.8-5.8-5.8
						l-0.1-0.9l-0.9,0c-0.7,0-1.3-0.7-1.3-1.4c0-0.7,0.6-1.3,1.3-1.3c0.1,0,0.3,0,0.4,0.1l0.9,0.3l0.4-0.8c1.7-3.4,5.8-4.7,9.1-3
						c1.3,0.7,2.4,1.7,3.1,3.1l0.4,0.9l0.9-0.3c0.7-0.3,1.4,0.1,1.7,0.8c0.3,0.7-0.1,1.4-0.8,1.7C49.3,34.6,49.2,34.6,49,34.6
						L49,34.6z"/>
				</g>
				<g>
					<path class="st2" d="M27.6,31c-0.3,0-0.6,0.1-0.8,0.2c-1.9-3.9-6.6-5.5-10.5-3.6c-1.5,0.8-2.8,2-3.6,3.5
						c-1.3-0.4-2.6,0.4-3,1.6c-0.4,1.3,0.4,2.6,1.6,3c0.2,0.1,0.4,0.1,0.5,0.1c0.6,4.3,4.6,7.3,8.9,6.8c3.5-0.5,6.3-3.2,6.8-6.8
						c0,0,0.1,0,0.1,0c1.3,0,2.4-1.1,2.4-2.4C30,32.1,28.9,31,27.6,31z"/>
					<path class="st2" d="M19.7,42.1c-3.7,0-6.8-2.7-7.3-6.4l-0.1-0.4l-0.4,0c-1,0-1.8-0.9-1.8-1.9c0-1,0.9-1.8,1.8-1.8
						c0.2,0,0.4,0,0.5,0.1l0.4,0.1l0.2-0.4c1.8-3.6,6.2-5.1,9.8-3.3c1.4,0.7,2.6,1.9,3.3,3.3l0.2,0.4l0.4-0.2c1-0.4,2,0.1,2.4,1.1
						c0.4,1-0.1,2-1.1,2.4c-0.2,0.1-0.4,0.1-0.6,0.1h-0.5L27,35.8C26.5,39.4,23.4,42.1,19.7,42.1z"/>
					<path d="M21.4,33.6l0,1.2c0,0.3,0.3,0.6,0.6,0.6c0,0,0,0,0,0l0,0c0.3,0,0.6-0.3,0.6-0.6c0,0,0,0,0,0l0-1.2
						c0-0.3-0.3-0.6-0.6-0.6c0,0,0,0,0,0l0,0C21.7,33.1,21.4,33.3,21.4,33.6C21.4,33.6,21.4,33.6,21.4,33.6z"/>
					<path d="M17.1,33.6l0,1.2c0,0.3,0.3,0.6,0.6,0.6c0,0,0,0,0,0l0,0c0.3,0,0.6-0.3,0.6-0.6c0,0,0,0,0,0l0-1.2
						c0-0.3-0.3-0.6-0.6-0.6c0,0,0,0,0,0l0,0C17.3,33.1,17.1,33.3,17.1,33.6C17.1,33.6,17.1,33.6,17.1,33.6z"/>
					<path d="M27.6,31c-0.3,0-0.6,0.1-0.8,0.2c-1.9-3.9-6.6-5.5-10.5-3.6c-1.5,0.8-2.8,2-3.6,3.5c-1.3-0.4-2.6,0.4-3,1.6
						c-0.4,1.3,0.4,2.6,1.6,3c0.2,0.1,0.4,0.1,0.5,0.1c0.6,4.3,4.6,7.3,8.9,6.8c3.5-0.5,6.3-3.2,6.8-6.8c0,0,0.1,0,0.1,0
						c1.3,0,2.4-1.1,2.4-2.4C30,32.1,28.9,31,27.6,31L27.6,31z M27.6,34.7h-0.9l-0.2,0.9c-0.5,3.7-3.9,6.3-7.7,5.8
						c-3-0.4-5.4-2.8-5.8-5.8l-0.1-0.9l-0.9,0c-0.7,0-1.3-0.7-1.3-1.4c0-0.7,0.6-1.3,1.3-1.3c0.1,0,0.2,0,0.4,0.1l0.9,0.3l0.4-0.8
						c1.7-3.4,5.8-4.7,9.1-3c1.3,0.7,2.4,1.7,3.1,3.1l0.4,0.9l0.9-0.3c0.7-0.3,1.4,0.1,1.7,0.8c0.3,0.7-0.1,1.4-0.8,1.7
						C27.9,34.7,27.8,34.7,27.6,34.7L27.6,34.7z"/>
				</g>
				<rect x="16.1" y="72.9" width="55.7" height="3.2"/>
				<path d="M60,76.1V53.4c0.1-3.3-2.4-6.1-5.7-6.3H19.6c-3.3,0.2-5.8,3-5.7,6.3l0,22.7H60z"/>
				<rect x="20.4" y="68.6" class="st2" width="12.8" height="3.2"/>
				<g>
					<g>
						<path class="st2" d="M64.7,57.3h0.1c1.1,0,2.1,0.9,2.1,2.1v10.9c0,1.1-0.9,2.1-2.1,2.1h-0.1c-1.1,0-2.1-0.9-2.1-2.1V59.4
							C62.7,58.2,63.6,57.3,64.7,57.3z"/>
						<path class="st2" d="M69,57.3h0.1c1.1,0,2.1,0.9,2.1,2.1v10.9c0,1.1-0.9,2.1-2.1,2.1H69c-1.1,0-2.1-0.9-2.1-2.1V59.4
							C67,58.2,67.9,57.3,69,57.3z"/>
						<path class="st2" d="M73.3,57.3h0.1c1.1,0,2.1,0.9,2.1,2.1v10.9c0,1.1-0.9,2.1-2.1,2.1h-0.1c-1.1,0-2.1-0.9-2.1-2.1V59.4
							C71.2,58.2,72.2,57.3,73.3,57.3z"/>
						<path class="st2" d="M77.6,57.3h0.1c1.1,0,2.1,0.9,2.1,2.1v10.9c0,1.1-0.9,2.1-2.1,2.1h-0.1c-1.1,0-2.1-0.9-2.1-2.1V59.4
							C75.5,58.2,76.5,57.3,77.6,57.3z"/>
					</g>
					<path class="st3" d="M80.3,58.9c-0.3-1.4-1.7-2.4-3.1-2.1c-0.7,0.1-1.2,0.5-1.6,1c-0.9-1.2-2.5-1.4-3.7-0.6
						c-0.2,0.2-0.4,0.4-0.6,0.6c-0.9-1.2-2.5-1.4-3.7-0.6c-0.2,0.2-0.4,0.4-0.6,0.6c-0.9-1.2-2.5-1.4-3.7-0.6c-0.5,0.4-0.9,1-1,1.6
						h-0.1v11.8h0.1c0.3,1.4,1.7,2.4,3.1,2.1c0.7-0.1,1.2-0.5,1.6-1c0.9,1.2,2.5,1.4,3.7,0.6c0.2-0.2,0.4-0.4,0.6-0.6
						c0.9,1.2,2.5,1.4,3.7,0.6c0.2-0.2,0.4-0.4,0.6-0.6c0.9,1.2,2.5,1.4,3.7,0.6c0.5-0.4,0.9-1,1-1.6l0,0L80.3,58.9L80.3,58.9z
						 M64.9,71.8c-0.7,0-1.4-0.5-1.6-1.1h-0.1V58.9h0c0.3-0.6,0.9-1.1,1.6-1.1c0.7,0,1.4,0.5,1.6,1.1h0v11.8h0
						C66.2,71.3,65.6,71.8,64.9,71.8z M69.2,71.8c-0.7,0-1.4-0.5-1.6-1.1h-0.1V58.9h0c0.3-0.6,0.9-1.1,1.6-1.1
						c0.7,0,1.4,0.5,1.6,1.1h0v11.8h0C70.5,71.3,69.9,71.8,69.2,71.8z M73.4,71.8c-0.7,0-1.4-0.5-1.6-1.1h-0.1V58.9h0
						c0.3-0.6,0.9-1.1,1.6-1.1c0.7,0,1.4,0.5,1.6,1.1h0v11.8h0C74.7,71.3,74.1,71.8,73.4,71.8z M77.7,71.8c-0.7,0-1.4-0.5-1.6-1.1
						h-0.1V58.9h0c0.3-0.6,0.9-1.1,1.6-1.1c0.7,0,1.4,0.5,1.6,1.1h0v11.8h0C79,71.3,78.4,71.8,77.7,71.8z"/>
				</g>
				<path d="M18,13.9h9.4V31c0,0-0.1,0-0.1,0c-0.2,0-0.4,0-0.7,0.1c-1.8-3.8-6.4-5.4-10.2-3.6c-1.6,0.8-2.9,2-3.6,3.6
					C12.6,31.1,12.3,31,12,31c0,0-0.1,0-0.1,0v-9.4C11.9,18,14.4,14.8,18,13.9z"/>
				<path d="M57,4.5C57,4.6,57,4.6,57,4.5c-2.9,3.2-4.1,2-7,5.1c-2.8,3.1-1.6,4.3-4.4,7.4c-2.8,3.1-4.9,2.4-7.8,5.5
					c-2.5,2.8-3.6,4.8-3.5,8.1c0,0,0,0,0.1-0.1c1.7-3.1,5.4-4.6,8.8-3.7c1.1,0.3,2.2,0.8,3,1.6c0.8,0.7,1.5,1.6,2,2.5
					c0.3-0.1,0.5-0.2,0.8-0.2c0.9,0,1.8,0.6,2.2,1.4c2.3-2.2,3.6-1.5,6.2-4.3c2.8-3.1,1.6-4.3,4.4-7.4s4.1-2,6.9-5.1
					c1-1,1.8-2.3,2.5-3.6C67,8.6,62.2,6.1,57,4.5z"/>
			</g>
		</g>
	</g>
</g>
</svg>
