<svg data-name="Layer 1" xmlns="http://www.w3.org/2000/svg" viewBox="0 0 64 64"><defs><linearGradient id="a" x1="25.113" y1="24.242" x2="55.876" y2="24.242" gradientUnits="userSpaceOnUse"><stop offset="0" stop-color="#21d789"/><stop offset="1" stop-color="#07c3f2"/></linearGradient><linearGradient id="b" x1="-17.865" y1="49.244" x2="57.823" y2="-6.628" gradientUnits="userSpaceOnUse"><stop offset=".011" stop-color="#fcf84a"/><stop offset=".112" stop-color="#a7eb62"/><stop offset=".206" stop-color="#5fe077"/><stop offset=".273" stop-color="#32da84"/><stop offset=".306" stop-color="#21d789"/><stop offset=".577" stop-color="#21d789"/><stop offset=".597" stop-color="#21d789"/><stop offset=".686" stop-color="#20d68c"/><stop offset=".763" stop-color="#1ed497"/><stop offset=".835" stop-color="#19d1a9"/><stop offset=".904" stop-color="#13ccc2"/><stop offset=".971" stop-color="#0bc6e1"/><stop offset="1" stop-color="#07c3f2"/></linearGradient><linearGradient id="c" x1="13.35" y1="71.201" x2="25.987" y2="31.544" gradientUnits="userSpaceOnUse"><stop offset="0" stop-color="#21d789"/><stop offset=".164" stop-color="#24d788"/><stop offset=".305" stop-color="#2fd886"/><stop offset=".437" stop-color="#41da82"/><stop offset=".564" stop-color="#5adc7d"/><stop offset=".688" stop-color="#7ae077"/><stop offset=".809" stop-color="#a1e36e"/><stop offset=".925" stop-color="#cfe865"/><stop offset="1" stop-color="#f1eb5e"/></linearGradient><linearGradient id="d" x1="27.244" y1="33.668" x2="48.149" y2="5.561" gradientUnits="userSpaceOnUse"><stop offset="0" stop-color="#21d789"/><stop offset=".061" stop-color="#24d788"/><stop offset=".113" stop-color="#2fd886"/><stop offset=".162" stop-color="#41da82"/><stop offset=".209" stop-color="#5add7d"/><stop offset=".255" stop-color="#79e077"/><stop offset=".258" stop-color="#7ce076"/><stop offset=".499" stop-color="#8ce173"/><stop offset=".925" stop-color="#b2e56b"/></linearGradient><linearGradient id="e" x1="62.688" y1="37.731" x2="13.302" y2="37.273" gradientUnits="userSpaceOnUse"><stop offset=".387" stop-color="#fcf84a"/><stop offset=".536" stop-color="#ecf451"/><stop offset=".826" stop-color="#c2e964"/><stop offset=".925" stop-color="#b2e56b"/></linearGradient></defs><path fill="url(#a)" d="M58 6H44l-8.4 30L58 42.483V6z"/><path fill="url(#b)" d="M33.782 6H6v43.541l8.2-.941 8.4-3.6.4-6.2L26.4 21 44 6H33.782z"/><path fill="url(#c)" d="M33.574 58L26.4 21l-7.6 3.8L6 44v14h27.574z"/><path fill="url(#d)" d="M42.112 6L28.2 18.4H49L47.185 6h-5.073z"/><path fill="url(#e)" d="M58 40.357L44 17l-14.8 1.4-2.8 2.6-7.477 31 12.615 6H58V40.357z"/><g><path d="M12 12h40v40H12z"/><path d="M16.2 17.2H23c4 0 6.4 2.4 6.4 5.8 0 3.8-3 5.8-6.8 5.8h-2.8v5h-3.6V17.2zm6.6 8.4a2.477 2.477 0 002.8-2.6c0-1.6-1.2-2.6-3-2.6h-2.8v5.2h3zM30.8 25.6a8.414 8.414 0 018.6-8.6 8.405 8.405 0 016.6 2.6l-2.4 2.6a5.756 5.756 0 00-4.2-1.8 4.96 4.96 0 00-4.8 5.2 4.96 4.96 0 004.8 5.2 6.423 6.423 0 004.4-2l2.4 2.4a8.716 8.716 0 01-6.8 3c-5-.2-8.6-3.8-8.6-8.6" fill="#fff"/></g><path fill="#fff" d="M16 45.4h15v2.4H16z"/></svg>