<svg width="70" height="70" xmlns="http://www.w3.org/2000/svg"><defs><linearGradient x1=".034%" y1="50.02%" x2="100%" y2="50.02%" id="a"><stop stop-color="#00DAF0" offset="19.4%"/><stop stop-color="#247CE6" offset="90.3%"/></linearGradient><linearGradient x1="-.07%" y1="50.043%" x2="100.027%" y2="50.043%" id="b"><stop stop-color="#00DAF0" offset="19.4%"/><stop stop-color="#247CE6" offset="90.3%"/></linearGradient><linearGradient x1="65.635%" y1="103.174%" x2="16.235%" y2="34.034%" id="c"><stop stop-color="#1DDF93" offset="9.1%"/><stop stop-color="#00DAF0" offset="48.4%"/><stop stop-color="#247CE6" offset="90.3%"/></linearGradient></defs><g fill-rule="nonzero" fill="none"><path fill="#247CE6" d="M59.2 55L70 26.3 37.3 19 33 31.2z"/><path fill="url(#a)" d="M70 56.1L53.5 70l-32.9-8.5 8.8-16z"/><path fill="url(#b)" d="M9.7 34.8l-8.4-24L38.4 0l-3 31z"/><path fill="url(#c)" d="M61.1 40.5L50.7 22.7l.2-.1L38.4 0 0 41.5V70l69.8-13.9z"/><path fill="#000" d="M13.4 13.4h43.2v43.2H13.4z"/><path fill="#FFF" d="M17.4 48.5h16.2v2.7H17.4zM24.5 19h3.6l7.6 17.9h-4.1l-1.6-4h-7.5l-1.6 4h-4L24.5 19zm4.1 10.4l-2.4-5.8-2.4 5.8h4.8zM34.7 28.1c0-5.2 3.9-9.4 9.4-9.4 3.4 0 5.4 1.1 7.1 2.8l-2.5 2.9c-1.4-1.3-2.8-2-4.6-2-3 0-5.2 2.5-5.2 5.6 0 3.1 2.1 5.7 5.2 5.7 2.1 0 3.3-.8 4.7-2.1l2.5 2.5c-1.9 2-3.9 3.2-7.4 3.2-5.3 0-9.2-4.1-9.2-9.2"/></g></svg>