<svg width="96" height="96" viewBox="0 0 96 96" fill="none" xmlns="http://www.w3.org/2000/svg">
<path d="M45.3675 34.4777L4.77 24.5552L0 35.8427L14.6325 82.6577L53.52 96.0002L45.3675 34.4777Z" fill="url(#paint0_linear_531_39953)"/>
<path d="M96.0001 27.4577L86.2426 8.35524L36.4501 0.000244141L14.6326 82.6577L53.5201 96.0002L55.6051 92.5802L96.0001 27.4577Z" fill="url(#paint1_linear_531_39953)"/>
<path d="M78.2026 18.0002H18.2026V78.0002H78.2026V18.0002Z" fill="black"/>
<path d="M58.4326 25.3203H63.0151L72.6901 48.0603H67.5001L65.4376 42.9978H55.8901L53.8276 48.0603H48.7651L58.4326 25.3203ZM63.6601 38.6103L60.6601 31.2903L57.6601 38.6103H63.6601Z" fill="white"/>
<path d="M44.8127 48.7352L42.3302 46.5077C40.4252 47.7302 38.1377 48.4427 35.6177 48.4427C28.6502 48.4427 23.6477 43.2527 23.6477 36.8327V36.7652C23.6477 30.3452 28.7102 25.0877 35.6777 25.0877C42.6452 25.0877 47.6477 30.2777 47.6477 36.6977V36.7652C47.6477 39.1502 46.9052 41.3777 45.6452 43.2527L47.9702 45.2177L44.8127 48.7352ZM38.6552 43.2527L34.9802 40.1252L38.1377 36.5777L41.8502 39.9302C42.2402 39.0302 42.4652 37.9652 42.4652 36.8327V36.7652C42.4652 32.8952 39.6302 29.6702 35.6252 29.6702C31.6277 29.6702 28.8527 32.8352 28.8527 36.7052V36.7727C28.8527 40.6427 31.6952 43.8677 35.6927 43.8677C36.7802 43.8677 37.7777 43.6727 38.6552 43.2527Z" fill="white"/>
<path d="M46.3276 66.7503H23.8276V70.5003H46.3276V66.7503Z" fill="white"/>
<defs>
<linearGradient id="paint0_linear_531_39953" x1="35.1851" y1="80.2679" x2="22.5457" y2="34.6564" gradientUnits="userSpaceOnUse">
<stop stop-color="#087CFA"/>
<stop offset="1" stop-color="#6B57FF"/>
</linearGradient>
<linearGradient id="paint1_linear_531_39953" x1="17.8305" y1="87.0608" x2="64.8875" y2="19.3682" gradientUnits="userSpaceOnUse">
<stop stop-color="#087CFA"/>
<stop offset="0.3873" stop-color="#097FF6"/>
<stop offset="0.9601" stop-color="#3BEA62"/>
</linearGradient>
</defs>
</svg>