<svg width="104" height="119" xmlns="http://www.w3.org/2000/svg"><g fill-rule="nonzero" fill="none"><path d="M81.853 59.496l-.031.045S69.176 74.196 52 74.196 22.178 59.541 22.178 59.541A163.004 163.004 0 010 30.285v58.967l.516.295a58.482 58.482 0 0026.42 6.02c13.337 0 26.335-2.174 36.185-8.707 10.008-6.638 16.916-17.438 18.732-27.364z" fill="#29B2E7"/><path d="M81.853 59.496c-1.816 9.926-8.724 20.726-18.732 27.364-9.85 6.533-22.848 8.707-36.186 8.707a58.482 58.482 0 01-26.419-6.02L52 119l52-29.748v-.528a163.477 163.477 0 00-22.147-29.228z" fill="#6284C3"/><path d="M81.853 59.496l-.006.009a65.226 65.226 0 01-2.244 28.41c-4.049 13.342-11.993 20.927-24.013 29.031L104 89.252v-.528a163.477 163.477 0 00-22.147-29.228z" fill="#6F57A5"/><path d="M22.147 59.504l.031-.045S34.824 44.804 52 44.804s29.822 14.655 29.822 14.655c8.47 8.886 15.91 18.7 22.178 29.257V29.748l-.516-.295a58.482 58.482 0 00-26.42-6.02c-13.337 0-26.335 2.174-36.185 8.707-10.008 6.638-16.916 17.438-18.732 27.364z" fill="#00A775"/><path d="M22.147 59.504c1.816-9.926 8.724-20.726 18.732-27.364 9.85-6.533 22.848-8.707 36.186-8.707a58.482 58.482 0 0126.419 6.02L52 0 0 29.748v.528a163.478 163.478 0 0022.147 29.228z" fill="#6EBE48"/><path d="M22.147 59.504l.006-.009a65.226 65.226 0 012.244-28.41C28.446 17.743 36.39 10.158 48.41 2.054L0 29.748v.528a163.478 163.478 0 0022.147 29.228z" fill="#ADD361"/></g></svg>