<svg width="70" height="70" xmlns="http://www.w3.org/2000/svg"><defs><linearGradient x1="10.22%" y1="78.419%" x2="72.954%" y2="41.138%" id="a"><stop stop-color="#905CFB" offset="0%"/><stop stop-color="#6677F8" offset="16.5%"/><stop stop-color="#3596F5" offset="37.8%"/><stop stop-color="#17A9F3" offset="54%"/><stop stop-color="#0CB0F2" offset="63.2%"/></linearGradient><linearGradient x1="65.741%" y1="63.962%" x2="2.01%" y2="12.057%" id="b"><stop stop-color="#905CFB" offset="0%"/><stop stop-color="#A554E6" offset="7.2%"/><stop stop-color="#D641B5" offset="25.2%"/><stop stop-color="#F43597" offset="39%"/><stop stop-color="#FF318C" offset="46.8%"/></linearGradient><linearGradient x1="10.77%" y1="70.568%" x2="159.872%" y2="-16.907%" id="c"><stop stop-color="#905CFB" offset="0%"/><stop stop-color="#6677F8" offset="16.5%"/><stop stop-color="#3596F5" offset="37.8%"/><stop stop-color="#17A9F3" offset="54%"/><stop stop-color="#0CB0F2" offset="63.2%"/></linearGradient></defs><g fill-rule="nonzero" fill="none"><path d="M67.9 47.5c-.2-.2-13.1-12.6-13.1-12.6s9.8-10.4 12.4-13c.8-.8 1.5-1.6 2-2.6 3.6-6.1 1.5-13.9-4.6-17.5-4.5-2.6-10.1-2.2-14.1.8-.7.5-1.3 1-1.9 1.6-.3.4-13.9 12.8-25.7 23.6l22.1 14-23.2 26.1c-1.4 1-2.8 1.6-4.3 1.9.3 0 .5 0 .8-.1 4.6-.7 43.9-7.3 45.8-7.7 2.3-.4 4.4-1.8 5.7-3.9C72 54.5 71 50 67.9 47.5z" fill="url(#a)" transform="translate(-1)"/><path d="M46.9 30.5c-.4-2.7-1.8-4.9-3.8-6.5C41 22.4 24.8 5.6 23 3.7 20.2 1 16.2-.5 12.1.2 5.1 1.2.2 7.8 1.3 14.8c.5 3.5 2.5 6.5 5.1 8.4 2.6 2 23 16 24.3 17 2.1 1.6 4.9 2.5 7.7 2 5.5-1 9.4-6.2 8.5-11.7z" fill="url(#b)" transform="translate(-1)"/><path d="M24 67.8c.1 0 23.3-26.1 23.3-26.1L23.9 26.9c-8.3 7.6-16 14.5-17.8 16.2-1.1 1-2.2 2.3-3 3.7-4.3 7.4-1.8 16.8 5.6 21.1 3 1.7 9.8 3.8 15.3-.1z" fill="url(#c)" transform="translate(-1)"/><path fill="#000" d="M13.4 13.4h43.2v43.2H13.4z"/><path fill="#FFF" d="M17.4 48.5h16.2v2.7H17.4zM23.8 29.9L17 19.1h4.6l4.2 7.1 4.4-7.1h4.5l-6.9 10.7V37h-4zM41.6 22.7h-5.5v-3.6H51v3.6h-5.5V37h-3.9z"/></g></svg>