<svg width="70" height="71" xmlns="http://www.w3.org/2000/svg"><defs><linearGradient x1="-.015%" y1="50.034%" x2="100.061%" y2="50.034%" id="a"><stop stop-color="#905CFB" offset="0%"/><stop stop-color="#776CF9" offset="6.8%"/><stop stop-color="#5681F7" offset="17.3%"/><stop stop-color="#3B92F5" offset="28.6%"/><stop stop-color="#269FF4" offset="41%"/><stop stop-color="#17A9F3" offset="54.7%"/><stop stop-color="#0FAEF2" offset="71.1%"/><stop stop-color="#0CB0F2" offset="96.8%"/></linearGradient><linearGradient x1="5.226%" y1="33.739%" x2="98.883%" y2="70.365%" id="b"><stop stop-color="#905CFB" offset="0%"/><stop stop-color="#776CF9" offset="6.8%"/><stop stop-color="#5681F7" offset="17.3%"/><stop stop-color="#3B92F5" offset="28.6%"/><stop stop-color="#269FF4" offset="41%"/><stop stop-color="#17A9F3" offset="54.7%"/><stop stop-color="#0FAEF2" offset="71.1%"/><stop stop-color="#0CB0F2" offset="96.8%"/></linearGradient><linearGradient x1="-27.546%" y1="75.867%" x2="79.957%" y2="37.898%" id="c"><stop stop-color="#3BEA62" offset="0%"/><stop stop-color="#31DE80" offset="11.7%"/><stop stop-color="#24CEA8" offset="30.2%"/><stop stop-color="#1AC1C9" offset="48.4%"/><stop stop-color="#12B7DF" offset="65.9%"/><stop stop-color="#0EB2ED" offset="82.4%"/><stop stop-color="#0CB0F2" offset="96.8%"/></linearGradient><linearGradient x1="63.999%" y1="8.358%" x2="28.991%" y2="110.821%" id="d"><stop stop-color="#3BEA62" offset="0%"/><stop stop-color="#2FDB87" offset="9.4%"/><stop stop-color="#24CEA8" offset="19.6%"/><stop stop-color="#1BC3C3" offset="30.6%"/><stop stop-color="#14BAD8" offset="42.6%"/><stop stop-color="#10B5E7" offset="56%"/><stop stop-color="#0DB1EF" offset="71.9%"/><stop stop-color="#0CB0F2" offset="96.8%"/></linearGradient></defs><g fill-rule="nonzero" fill="none"><path d="M39.7 48.9l-6.1-34c-.4-2.4-1.2-4.8-2.7-7.1-2-3.2-5.2-5.4-8.8-6.3C7.9-1.9-2.6 12.3 3.6 24.9l14.8 31.7c.4 1 1 2 1.7 2.9 1.2 1.6 2.8 2.8 4.7 3.4 9.6 3 17.3-5.5 14.9-14z" fill="url(#a)"/><path d="M67.4 27.5c-1.4-2.2-3.4-3.9-5.7-4.9L25.5 2.7c-1-.5-2.1-1-3.3-1.3C6.7-2.2-4.4 14.8 5.5 28c1.5 2 3.6 3.6 6 4.5L48 48.9c.8.5 1.6.8 2.5 1.1 14 4.4 24.6-10.4 16.9-22.5z" fill="url(#b)"/><path d="M67.4 27.5c-1.8-2.8-4.6-4.8-7.9-5.6-3.5-.8-6.8-.5-9.6.7L11.4 37.1s-.2.1-.6.4C.9 41.4-4 54.3 4 65c1.8 2.4 4.3 4.2 7.1 5 5.3 1.6 10.1 1 14-1.1h.1l37.6-20.1.1-.1c6.6-3.8 9.7-13.1 4.5-21.2z" fill="url(#c)"/><path d="M50.3 13.8c1.2-2.7 1.1-6-.9-9-1.1-1.8-2.9-3-4.9-3.5-4.5-1.1-8.3 1-10.1 4.2L3.5 43v.1C-.9 48.9-1.6 57.5 4 65c1.8 2.4 4.3 4.2 7.1 5 10.5 3.3 19.3-2.5 22.1-10.8l17.1-45.4z" fill="url(#d)"/><path fill="#000" d="M13.4 14.4h43.2v43.2H13.4z"/><path fill="#FFF" d="M17.5 49.5h16.2v2.7H17.5zM22.9 23.7h-5.4v-3.6h14.8v3.6h-5.5V38h-3.9zM32.5 29.1c0-5.1 3.8-9.3 9.3-9.3 3.4 0 5.4 1.1 7.1 2.8l-2.5 2.9c-1.4-1.3-2.8-2-4.6-2-3 0-5.2 2.5-5.2 5.6V29c0 3.1 2.1 5.6 5.2 5.6 2 0 3.3-.8 4.7-2.1L49 35c-1.8 2-3.9 3.2-7.3 3.2-5.3.1-9.2-4-9.2-9.1"/></g></svg>