<svg xmlns="http://www.w3.org/2000/svg" width="64" height="64" fill="none" viewBox="0 0 64 64"><defs><linearGradient id="air_svg__a" x1="32" x2="32" y1="63.484" y2=".169" gradientUnits="userSpaceOnUse"><stop stop-color="#00DFE3"/><stop offset=".24" stop-color="#1E6296"/><stop offset=".61"/></linearGradient><linearGradient id="air_svg__b" x1="33.958" x2="33.958" y1="57.994" y2="16.229" gradientUnits="userSpaceOnUse"><stop stop-color="#A8E5E7"/><stop offset="1" stop-color="#fff"/></linearGradient><linearGradient id="air_svg__c" x1="33.958" x2="33.958" y1="57.994" y2="16.229" gradientUnits="userSpaceOnUse"><stop stop-color="#A8E5E7"/><stop offset="1" stop-color="#fff"/></linearGradient><linearGradient id="air_svg__d" x1="33.958" x2="33.958" y1="57.994" y2="16.229" gradientUnits="userSpaceOnUse"><stop stop-color="#A8E5E7"/><stop offset="1" stop-color="#fff"/></linearGradient></defs><path fill="url(#air_svg__a)" d="M14.55 0h34.9A14.55 14.55 0 0 1 64 14.55v34.9A14.55 14.55 0 0 1 49.45 64h-34.9A14.55 14.55 0 0 1 0 49.45v-34.9A14.55 14.55 0 0 1 14.55 0"/><path fill="url(#air_svg__b)" d="M44.651 19.983q1.283 0 2.317.643a5.15 5.15 0 0 1 1.676 1.674q.641 1.035.641 2.317 0 1.284-.641 2.315-.505.812-1.25 1.38.558.495.962 1.145Q49 30.49 49 31.773q0 1.282-.643 2.316-.39.63-.928 1.114a5.2 5.2 0 0 1 1.216 1.353q.641 1.035.641 2.317 0 1.28-.638 2.31v-.003q-.506.812-1.25 1.38.557.495.962 1.144.644 1.034.643 2.316 0 1.283-.643 2.317a5.1 5.1 0 0 1-1.674 1.674q-1.035.644-2.317.643a4.3 4.3 0 0 1-2.316-.643 5.1 5.1 0 0 1-1.117-.932q-.477.521-1.092.905a4.3 4.3 0 0 1-2.317.643 4.3 4.3 0 0 1-2.315-.643 5.1 5.1 0 0 1-1.379-1.249q-.575.764-1.4 1.277-1.035.644-2.317.643a4.3 4.3 0 0 1-2.315-.643 5.1 5.1 0 0 1-1.118-.932q-.476.521-1.091.905a4.3 4.3 0 0 1-2.317.643 4.3 4.3 0 0 1-2.316-.643 5.1 5.1 0 0 1-1.675-1.675q-.643-1.032-.642-2.316 0-1.283.642-2.317a5.14 5.14 0 0 1 1.675-1.674q1.033-.644 2.316-.643 1.283 0 2.317.643.63.393 1.117.933.476-.521 1.092-.904 1.032-.642 2.315-.643 1.283 0 2.317.643.81.505 1.379 1.25a5.1 5.1 0 0 1 1.4-1.278q1.032-.643 2.315-.643t2.317.643a5.2 5.2 0 0 1 1.118.934q.303-.332.663-.608a5.2 5.2 0 0 1-.962-1.145q-.643-1.032-.642-2.316 0-1.283.642-2.317.392-.63.929-1.113a5 5 0 0 1-.658-.611 5.2 5.2 0 0 1-1.091.905 4.3 4.3 0 0 1-2.317.643 4.3 4.3 0 0 1-2.316-.643 5.1 5.1 0 0 1-1.378-1.249q-.575.764-1.4 1.277a4.3 4.3 0 0 1-2.317.643 4.3 4.3 0 0 1-2.316-.643 5.1 5.1 0 0 1-1.117-.932q-.477.522-1.092.905a4.3 4.3 0 0 1-2.316.643 4.3 4.3 0 0 1-2.316-.643 5.1 5.1 0 0 1-1.675-1.675q-.643-1.032-.642-2.316 0-1.283.642-2.317a5.14 5.14 0 0 1 1.675-1.674q1.034-.643 2.316-.643t2.316.643q.632.393 1.118.933a5.1 5.1 0 0 1 1.09-.905q1.033-.643 2.317-.643 1.283 0 2.317.643.81.505 1.379 1.25a5.1 5.1 0 0 1 1.399-1.277c.687-.429 1.462-.643 2.316-.643q1.283 0 2.317.643.63.393 1.117.933.304-.332.664-.608a5.2 5.2 0 0 1-.963-1.146q-.642-1.032-.641-2.315 0-1.283.641-2.317a5.15 5.15 0 0 1 1.676-1.674q1.031-.643 2.315-.643"/><path fill="url(#air_svg__c)" d="M16.138 34.239q1.283 0 2.316.643a5.14 5.14 0 0 1 1.675 1.674q.643 1.035.642 2.317 0 1.283-.642 2.316a5.1 5.1 0 0 1-1.675 1.675q-1.033.643-2.316.643a4.3 4.3 0 0 1-2.317-.643 5.1 5.1 0 0 1-1.675-1.675q-.642-1.032-.642-2.316t.642-2.317a5.14 5.14 0 0 1 1.675-1.674q1.033-.644 2.317-.643"/><path fill="url(#air_svg__d)" d="M23.267 12.851q1.283 0 2.316.643.632.393 1.117.934.476-.522 1.092-.905 1.032-.642 2.315-.642t2.317.642q.81.505 1.379 1.25a5.1 5.1 0 0 1 1.4-1.278c.687-.429 1.462-.642 2.316-.642q1.283 0 2.316.642a5.15 5.15 0 0 1 1.676 1.676q.641 1.032.641 2.315t-.641 2.316a5.1 5.1 0 0 1-1.676 1.676q-1.032.643-2.315.642a4.3 4.3 0 0 1-2.317-.642 5.1 5.1 0 0 1-1.379-1.249q-.575.764-1.4 1.278a4.3 4.3 0 0 1-2.317.642 4.3 4.3 0 0 1-2.315-.642 5.1 5.1 0 0 1-1.118-.933q-.476.521-1.091.905-1.033.643-2.316.643a4.3 4.3 0 0 1-2.317-.643v-.003a5.1 5.1 0 0 1-1.675-1.674q-.642-1.033-.642-2.317 0-1.283.642-2.316a5.14 5.14 0 0 1 1.675-1.675q1.033-.643 2.317-.643"/></svg>