<svg width="70" height="70" xmlns="http://www.w3.org/2000/svg"><defs><linearGradient x1="1.953%" y1="62.481%" x2="95.863%" y2="37.281%" id="a"><stop stop-color="#7866FF" offset="12.4%"/><stop stop-color="#FE2EB6" offset="53.8%"/><stop stop-color="#FD0486" offset="85.5%"/></linearGradient><linearGradient x1="38.677%" y1="81.402%" x2="69.129%" y2="19.036%" id="b"><stop stop-color="#FF0080" offset="12.4%"/><stop stop-color="#FE0385" offset="25.9%"/><stop stop-color="#FA0C92" offset="41.1%"/><stop stop-color="#F41BA9" offset="57.1%"/><stop stop-color="#EB2FC8" offset="73.6%"/><stop stop-color="#E343E6" offset="86.6%"/></linearGradient></defs><g fill-rule="nonzero" fill="none"><path fill="url(#a)" d="M67.3 16L43.7 0 0 31.1 11.1 70l47.8-9.7z"/><path fill="url(#b)" d="M67.3 16L43.7 0 38 15.7v32.1h32z"/><path fill="#000" d="M13.4 13.4h43.2v43.2H13.4z"/><path fill="#FFF" d="M17.4 48.5h16.2v2.7H17.4z"/><g fill="#FFF"><path d="M17.4 19.1h6.9c5.6 0 9.5 3.8 9.5 8.9 0 5-3.9 8.9-9.5 8.9h-6.9V19.1zm4 3.6v10.7h3c3.2 0 5.4-2.2 5.4-5.3V28c0-3.2-2.2-5.4-5.4-5.4h-3v.1zM40.3 22.7h-5.4v-3.6h14.7v3.6h-5.4V37h-3.9z"/></g></g></svg>