<svg width="70" height="70" xmlns="http://www.w3.org/2000/svg"><defs><linearGradient x1="67.685%" y1="84.682%" x2="37.157%" y2="25.173%" id="a"><stop stop-color="#FF1F51" offset="17.2%"/><stop stop-color="#FF3648" offset="28%"/><stop stop-color="#FF593B" offset="46.8%"/><stop stop-color="#FF7231" offset="64.6%"/><stop stop-color="#FF812B" offset="80.9%"/><stop stop-color="#FF8629" offset="94.1%"/></linearGradient><linearGradient x1="61.448%" y1="38.289%" x2="43.527%" y2="67.769%" id="b"><stop stop-color="#9039D0" offset="2.2%"/><stop stop-color="#FF1F51" offset="62.9%"/></linearGradient><linearGradient x1="12.946%" y1="8.019%" x2="73.882%" y2="97.527%" id="c"><stop stop-color="#9039D0" offset="10.7%"/><stop stop-color="#FF1F51" offset="38.7%"/><stop stop-color="#FF1F51" offset="62.9%"/><stop stop-color="#FF3648" offset="66%"/><stop stop-color="#FF593B" offset="71.4%"/><stop stop-color="#FF7231" offset="76.5%"/><stop stop-color="#FF812B" offset="81.2%"/><stop stop-color="#FF8629" offset="85%"/></linearGradient></defs><g fill-rule="nonzero" fill="none"><path fill="url(#a)" d="M58.2 0l-20 7.2L22.4 0 6.9 38.9l17.8-7.1-.3 19.7 38.1.7L70 13.7z"/><path fill="url(#b)" d="M50.8 22.7L25.6 6.2 5.3 18.7l44.5 17.2z"/><path fill="url(#c)" d="M29.1 68.2l26.2-3.5-8.3-16 5.5-6.7.6-4.1L25.6 6.1 0 12.4v36.7L14.8 70l14.3-1.8z"/><path fill="#000" d="M13.4 13.4h43.2v43.2H13.4z"/><path fill="#FFF" d="M17.5 48.5h16.2v2.7H17.5zM34.6 19h4.3l4.7 7.6 4.7-7.6h4.3v17.9h-4V25.2l-5 7.7h-.1l-5-7.6v11.6h-3.9zM17.4 19h8.2c2.3 0 4 .6 5.2 1.8 1 1 1.5 2.4 1.5 4.1v.1c0 1.5-.4 2.6-1.1 3.5-.7.9-1.6 1.6-2.8 2l4.4 6.4h-4.6l-3.7-5.5h-3.3v5.5h-3.9V19h.1zm8 8.7c1 0 1.7-.2 2.2-.7.5-.5.8-1.1.8-1.8v-.1c0-.9-.3-1.5-.8-1.9-.5-.4-1.3-.6-2.3-.6h-3.9v5.1h4z"/></g></svg>