<svg width="70" height="70" xmlns="http://www.w3.org/2000/svg"><defs><linearGradient x1="-46.871%" y1="50.144%" x2="90.614%" y2="50.144%" id="a"><stop stop-color="#21D789" offset="0%"/><stop stop-color="#07C3F2" offset="100%"/></linearGradient><linearGradient x1="-19.088%" y1="105.502%" x2="105.915%" y2="-7.573%" id="b"><stop stop-color="#FCF84A" offset="1.1%"/><stop stop-color="#A7EB62" offset="11.2%"/><stop stop-color="#5FE077" offset="20.6%"/><stop stop-color="#32DA84" offset="27.3%"/><stop stop-color="#21D789" offset="30.6%"/><stop stop-color="#21D789" offset="57.7%"/><stop stop-color="#21D789" offset="59.7%"/><stop stop-color="#20D68C" offset="68.6%"/><stop stop-color="#1ED497" offset="76.3%"/><stop stop-color="#19D1A9" offset="83.5%"/><stop stop-color="#13CCC2" offset="90.4%"/><stop stop-color="#0BC6E1" offset="97.1%"/><stop stop-color="#07C3F2" offset="100%"/></linearGradient><linearGradient x1="42.222%" y1="115.979%" x2="61.179%" y2="22.255%" id="c"><stop stop-color="#21D789" offset="0%"/><stop stop-color="#24D788" offset="16.4%"/><stop stop-color="#2FD886" offset="30.5%"/><stop stop-color="#41DA82" offset="43.7%"/><stop stop-color="#5ADC7D" offset="56.4%"/><stop stop-color="#7AE077" offset="68.8%"/><stop stop-color="#A1E36E" offset="80.9%"/><stop stop-color="#CFE865" offset="92.5%"/><stop stop-color="#F1EB5E" offset="100%"/></linearGradient><linearGradient x1="-9.568%" y1="144.04%" x2="118.556%" y2="8.642%" id="d"><stop stop-color="#21D789" offset="0%"/><stop stop-color="#24D788" offset="6.1%"/><stop stop-color="#2FD886" offset="11.3%"/><stop stop-color="#41DA82" offset="16.2%"/><stop stop-color="#5ADD7D" offset="20.9%"/><stop stop-color="#79E077" offset="25.5%"/><stop stop-color="#7CE076" offset="25.8%"/><stop stop-color="#8CE173" offset="49.9%"/><stop stop-color="#B2E56B" offset="92.5%"/></linearGradient><linearGradient x1="105.842%" y1="50.477%" x2="-7.933%" y2="49.368%" id="e"><stop stop-color="#FCF84A" offset="38.7%"/><stop stop-color="#ECF451" offset="53.6%"/><stop stop-color="#C2E964" offset="82.6%"/><stop stop-color="#B2E56B" offset="92.5%"/></linearGradient></defs><g fill-rule="nonzero" fill="none"><path fill="url(#a)" d="M49.1 11l20.4 17.1L62.2 43l-12.4-3.4H39.2z"/><path fill="url(#b)" d="M28.5 22.1l-4 20.9-.4 7.2-9.9 4.3L0 56l4.3-45.3L29.9 0l15.8 10.4z"/><path fill="url(#c)" d="M28.5 22.1l1.9 40.4L24 70 0 56l19.7-29.4z"/><path fill="url(#d)" d="M54.9 19.1H30.6L52.1 0z"/><path fill="url(#e)" d="M70 62.6l-21.4 7.3-28.4-8 8.3-39.8 3.3-3 17.3-1.6-1.6 17.4 13.8-5.3z"/><path fill="#000" d="M13.4 13.4h43.2v43.2H13.4z"/><path fill="#FFF" d="M17.5 48.5h16.2v2.7H17.5zM17.3 19.1h7.3c4.3 0 6.9 2.5 6.9 6.2v.1c0 4.1-3.2 6.3-7.2 6.3h-3V37h-3.9V19.1h-.1zm7.1 9c2 0 3.1-1.2 3.1-2.7v-.1c0-1.8-1.2-2.7-3.2-2.7h-3v5.5h3.1zM33.6 19.1h13.5v3.5h-9.6v3.6H46v3.5h-8.4v3.8h9.7V37H33.6z"/></g></svg>