<svg width="70" height="70" xmlns="http://www.w3.org/2000/svg"><defs><linearGradient x1="-.031%" y1="49.962%" x2="100.052%" y2="49.962%" id="a"><stop stop-color="#F97A12" offset="25.8%"/><stop stop-color="#B07B58" offset="45.9%"/><stop stop-color="#577BAE" offset="72.4%"/><stop stop-color="#1E7CE5" offset="91%"/><stop stop-color="#087CFA" offset="100%"/></linearGradient><linearGradient x1="29.393%" y1="34.514%" x2="79.577%" y2="77.605%" id="b"><stop stop-color="#F97A12" offset="0%"/><stop stop-color="#CB7A3E" offset="7.2%"/><stop stop-color="#9E7B6A" offset="15.4%"/><stop stop-color="#757B91" offset="24.2%"/><stop stop-color="#537BB1" offset="33.4%"/><stop stop-color="#387CCC" offset="43.2%"/><stop stop-color="#237CE0" offset="53.8%"/><stop stop-color="#147CEF" offset="65.5%"/><stop stop-color="#0B7CF7" offset="79.2%"/><stop stop-color="#087CFA" offset="100%"/></linearGradient><linearGradient x1="64.903%" y1="97.699%" x2="39.542%" y2="-6.586%" id="c"><stop stop-color="#FE315D" offset="0%"/><stop stop-color="#CB417E" offset="7.8%"/><stop stop-color="#9E4E9B" offset="16%"/><stop stop-color="#755BB4" offset="24.7%"/><stop stop-color="#5365CA" offset="33.9%"/><stop stop-color="#386DDB" offset="43.6%"/><stop stop-color="#2374E9" offset="54.1%"/><stop stop-color="#1478F3" offset="65.8%"/><stop stop-color="#0B7BF8" offset="79.4%"/><stop stop-color="#087CFA" offset="100%"/></linearGradient><linearGradient x1="31.432%" y1="24.119%" x2="83.008%" y2="132.621%" id="d"><stop stop-color="#FE315D" offset="0%"/><stop stop-color="#F63462" offset="4%"/><stop stop-color="#DF3A71" offset="10.4%"/><stop stop-color="#C24383" offset="16.7%"/><stop stop-color="#AD4A91" offset="29.1%"/><stop stop-color="#755BB4" offset="55%"/><stop stop-color="#1D76ED" offset="91.7%"/><stop stop-color="#087CFA" offset="100%"/></linearGradient></defs><g fill-rule="nonzero" fill="none"><path fill="url(#a)" d="M17.7 54.6L.8 41.2l8.4-15.6L33.3 35z"/><path fill="url(#b)" d="M70 18.7l-1.3 40.5L41.8 70 25.6 59.6 49.3 35 38.9 12.3l9.3-11.2z"/><path fill="url(#c)" d="M70 18.7L48.7 43.9l-9.8-31.6 9.3-11.2z"/><path fill="url(#d)" d="M33.7 58.1L5.6 68.3l4.5-15.8L16 33.1 0 27.7 10.1 0l22 2.7 21.6 24.7z"/><path fill="#000" d="M13.7 13.5h43.2v43.2H13.7z"/><path fill="#FFF" d="M17.7 48.6h16.2v2.7H17.7zM29.4 22.4v-3.3h-9v3.3H23v11.3h-2.6V37h9v-3.3h-2.5V22.4zM33.6 19.1h13.5v3.5h-9.6v3.6H46v3.5h-8.4v3.8h9.7V37H33.6z"/></g></svg>