<svg width="67" height="67" xmlns="http://www.w3.org/2000/svg"><defs><linearGradient x1="72.52%" y1="14.036%" x2="31.752%" y2="73.959%" id="a"><stop stop-color="#078EFC" offset="17.4%"/><stop stop-color="#118AFC" offset="20.4%"/><stop stop-color="#5971FC" offset="43.5%"/><stop stop-color="#8E5EFC" offset="62.7%"/><stop stop-color="#AF52FC" offset="77%"/><stop stop-color="#BB4EFC" offset="84.9%"/></linearGradient><linearGradient x1="13.811%" y1="69.315%" x2="93.878%" y2="36.014%" id="b"><stop stop-color="#078EFC" offset="17.4%"/><stop stop-color="#118AFC" offset="20.4%"/><stop stop-color="#5971FC" offset="43.5%"/><stop stop-color="#8E5EFC" offset="62.7%"/><stop stop-color="#AF52FC" offset="77%"/><stop stop-color="#BB4EFC" offset="84.9%"/></linearGradient><linearGradient x1="13.893%" y1="71.063%" x2="86.029%" y2="34.551%" id="c"><stop stop-color="#078EFC" offset="0%"/><stop stop-color="#15A7D3" offset="10.6%"/><stop stop-color="#23BFAA" offset="22.8%"/><stop stop-color="#2DD28B" offset="34.8%"/><stop stop-color="#35DF74" offset="46.3%"/><stop stop-color="#39E767" offset="57.3%"/><stop stop-color="#3BEA62" offset="67%"/></linearGradient></defs><g fill-rule="nonzero" fill="none"><path fill="url(#a)" d="M57.274 22.361l9.541 21.197-13.49 23.045-32.403-26.401L37.493 24.23z"/><path fill="#BB4EFC" d="M43.499 42.747l9.826 23.857-29.935-10.29-2.468-16.111z"/><path fill="#078EFC" d="M24.281 9.433l13.776 7.06-12.398 37.54-24.969-.26 5.364-11.895L.69 26.677z"/><path fill="url(#b)" d="M41.563.479l6.515 22.17L.69 26.677 15.761.479z"/><path fill="url(#c)" d="M66.815 14.519l-27.724 6.58L.69 53.773l24.768 12.831 21.515-22.181z"/><path fill="#000" d="M11.711 11.5h44.083v44.083H11.711z"/><path fill="#FFF" d="M16.119 48.309H32.65v2.645H16.119z"/><g fill="#FFF"><path d="M14.607 25.88v-.054c-.18-5.295 3.967-9.734 9.262-9.913.09-.003.179-.005.269-.005a9.681 9.681 0 017.142 2.63l-2.52 3.206a6.513 6.513 0 00-4.753-1.945 5.642 5.642 0 00-5.22 5.974v.054a5.616 5.616 0 005.507 6.082 6.145 6.145 0 003.765-1.151v-2.74h-4.025v-3.643h7.895v8.328a11.445 11.445 0 01-7.765 3.043c-5.162.123-9.446-3.963-9.569-9.125-.005-.247-.001-.494.012-.741zM33.609 25.88v-.054a9.663 9.663 0 019.405-9.915 9.662 9.662 0 019.916 9.862v.054a9.663 9.663 0 01-9.405 9.915 9.663 9.663 0 01-9.915-9.405 9.943 9.943 0 01-.001-.457zm15.141 0v-.054a5.695 5.695 0 00-5.507-6.028 5.606 5.606 0 00-5.464 5.746c.002.076.005.152.01.229v.054a5.695 5.695 0 005.507 6.028 5.606 5.606 0 005.464-5.746 5.844 5.844 0 00-.01-.229z"/></g></g></svg>