<svg width="70" height="70" xmlns="http://www.w3.org/2000/svg"><defs><linearGradient x1="100.342%" y1="71.578%" x2="-13.536%" y2="35.764%" id="a"><stop stop-color="#C90F5E" offset="0%"/><stop stop-color="#C90F5E" offset="22.1%"/><stop stop-color="#C90F5E" offset="23.6%"/><stop stop-color="#CA135C" offset="35.6%"/><stop stop-color="#CE1E57" offset="46.6%"/><stop stop-color="#D4314E" offset="57.4%"/><stop stop-color="#DC4B41" offset="67.8%"/><stop stop-color="#E66D31" offset="78.2%"/><stop stop-color="#F3961D" offset="88.3%"/><stop stop-color="#FCB20F" offset="94.2%"/></linearGradient><linearGradient x1="30.093%" y1="11.869%" x2="56.336%" y2="97.599%" id="b"><stop stop-color="#077CFB" offset="4.2%"/><stop stop-color="#C90F5E" offset="44.5%"/><stop stop-color="#077CFB" offset="95.8%"/></linearGradient><linearGradient x1="39.547%" y1="11.352%" x2="56.941%" y2="91.687%" id="c"><stop stop-color="#C90F5E" offset="27.7%"/><stop stop-color="#FCB20F" offset="97.4%"/></linearGradient></defs><g fill-rule="nonzero" fill="none"><path fill="url(#a)" d="M70 27.237l-6.609-3.487L20.926 0 3.827 17.921l17.792 23.147 38.918 3.329z"/><path fill="url(#b)" d="M50.423 16.132L44.271 1.107 27.643 17.471 11.768 50.194 49.411 70 70 57.98z"/><path fill="url(#c)" d="M20.926 0L0 14.095l7.779 48.077 20.069 7.717L53.78 48.823z"/><path fill="#000" d="M13.302 13.193h43.614v43.614H13.302z"/><g fill="#FFF"><path d="M17.227 18.863h8.396a7.384 7.384 0 015.343 1.854 5.87 5.87 0 011.526 4.143 5.743 5.743 0 01-3.925 5.67l4.47 6.542H28.35l-3.925-5.888h-3.162v5.888h-4.035v-18.21zm8.069 8.832c1.963 0 3.053-1.09 3.053-2.617 0-1.745-1.2-2.617-3.162-2.617h-4.034v5.234h4.143zM36.09 18.863h7.197c5.778 0 9.704 3.925 9.704 9.159 0 5.124-3.926 9.159-9.704 9.159H36.09V18.863zm4.035 3.598v11.013h3.162a5.237 5.237 0 005.56-5.452 5.265 5.265 0 00-5.56-5.56h-3.162z"/></g><path fill="#FFF" d="M17.227 48.629h16.355v2.726H17.227z"/></g></svg>