<svg width="233" height="233" viewBox="0 0 233 233" fill="none" xmlns="http://www.w3.org/2000/svg">
<path d="M95.832 127.049L138.166 105.139L95.832 127.049Z" fill="url(#paint0_linear_1_16)"/>
<path d="M167.36 185.806L81.8537 232.093L1 184.763L149.669 129.218L167.36 185.806Z" fill="url(#paint1_linear_1_16)"/>
<path d="M133.486 0.0937958L86.9993 137.959L40.7444 112.145L1 184.765L75.2205 172.899L169.398 156.292L232.999 142.039V55.5223L133.486 0.0937958Z" fill="url(#paint2_linear_1_16)"/>
<path d="M106.032 80.4642L44.2027 62.6484L39.1133 0.0937958L91.151 22.0018L133.485 0.0937958L106.032 80.4642Z" fill="#087CFA"/>
<path d="M107.844 76.8392L91.15 22.0018L133.484 0.0937958L107.844 76.8392Z" fill="url(#paint3_linear_1_16)"/>
<path d="M160.654 134.823L39.1156 0.0937958L1 86.992L108.324 179.7L160.654 134.823Z" fill="url(#paint4_linear_1_16)"/>
<path d="M233 142.039L162.22 158.401L164.921 146.75L233 55.5234V142.039Z" fill="url(#paint5_linear_1_16)"/>
<path d="M195.859 232.093L108.326 179.7L160.657 134.822L195.859 232.093Z" fill="url(#paint6_linear_1_16)"/>
<path d="M189 44H45V188H189V44Z" fill="url(#paint7_linear_1_16)"/>
<g opacity="0.3">
<path opacity="0.3" d="M178.8 161.2L189 154.5V66.2L149 44H99.9L178.8 161.2Z" fill="url(#paint8_linear_1_16)"/>
<path opacity="0.3" d="M45 188H145.8L178.8 161.2L99.9 44H45V188Z" fill="url(#paint9_linear_1_16)"/>
<path opacity="0.3" d="M79.4998 171.9L54.2998 188H98L79.4998 171.9Z" fill="url(#paint10_linear_1_16)"/>
<path opacity="0.3" d="M45 141.6L98.1 188H189V95.8L165.5 44H107L102.8 48.2L45 106.4V141.6Z" fill="url(#paint11_linear_1_16)"/>
<path opacity="0.3" d="M159.9 44L189 138.2V95.8L165.5 44H159.9Z" fill="url(#paint12_linear_1_16)"/>
</g>
<path d="M116.9 160.9H62.7998V169.9H116.9V160.9Z" fill="white"/>
<path d="M63 61.4004H88.4406C95.416 61.4004 100.956 63.4521 104.649 66.9399C107.726 70.0174 109.368 74.3259 109.368 79.6602V79.8653C109.368 88.893 104.444 94.432 97.468 97.099L111.009 117H96.647L84.7476 99.151H75.1048V117H63V61.4004ZM87.6199 88.482C93.57 88.482 97.058 85.4048 97.058 80.686V80.4808C97.058 75.1465 93.365 72.4794 87.4148 72.4794H75.31V88.482H87.6199Z" fill="white"/>
<path d="M119.421 61.4004H162.048V72.5203H131.737V84.3551H158.449V95.475H131.737V117H119.421V61.4004Z" fill="white"/>
<defs>
<linearGradient id="paint0_linear_1_16" x1="109.988" y1="107.446" x2="121.414" y2="121.538" gradientUnits="userSpaceOnUse">
<stop offset="0.10351" stop-color="#087CFA"/>
<stop offset="0.7929" stop-color="#DD1265"/>
</linearGradient>
<linearGradient id="paint1_linear_1_16" x1="56.8194" y1="137.74" x2="129.151" y2="212.941" gradientUnits="userSpaceOnUse">
<stop offset="0.00948" stop-color="#087CFA"/>
<stop offset="0.4931" stop-color="#903ACA"/>
<stop offset="0.92898" stop-color="#DD1265"/>
</linearGradient>
<linearGradient id="paint2_linear_1_16" x1="140.92" y1="119.958" x2="192.189" y2="29.6027" gradientUnits="userSpaceOnUse">
<stop offset="0.58883" stop-color="#087CFA"/>
<stop offset="0.99158" stop-color="#0093FF"/>
</linearGradient>
<linearGradient id="paint3_linear_1_16" x1="101.277" y1="0.0211959" x2="139.289" y2="75.4001" gradientUnits="userSpaceOnUse">
<stop offset="0.21274" stop-color="#087CFA"/>
<stop offset="0.69871" stop-color="#DD1265"/>
</linearGradient>
<linearGradient id="paint4_linear_1_16" x1="51.2885" y1="10.2878" x2="85.7719" y2="127.747" gradientUnits="userSpaceOnUse">
<stop stop-color="#087CFA"/>
<stop offset="0.33251" stop-color="#903ACA"/>
<stop offset="0.5988" stop-color="#DD1265"/>
</linearGradient>
<linearGradient id="paint5_linear_1_16" x1="271.485" y1="54.9469" x2="166.355" y2="174.691" gradientUnits="userSpaceOnUse">
<stop offset="0.21274" stop-color="#087CFA"/>
<stop offset="0.56433" stop-color="#903ACA"/>
<stop offset="0.84373" stop-color="#DD1265"/>
</linearGradient>
<linearGradient id="paint6_linear_1_16" x1="195.725" y1="239.17" x2="129.581" y2="150.692" gradientUnits="userSpaceOnUse">
<stop offset="0.30597" stop-color="#FDB60D"/>
<stop offset="1" stop-color="#DD1265"/>
</linearGradient>
<linearGradient id="paint7_linear_1_16" x1="42.6427" y1="41.6427" x2="178.419" y2="177.419" gradientUnits="userSpaceOnUse">
<stop offset="0.0284813" stop-color="#5A1F3A"/>
<stop offset="0.0797561" stop-color="#4E1B32"/>
<stop offset="0.2774" stop-color="#260D18"/>
<stop offset="0.3795" stop-color="#16080E"/>
<stop offset="0.3907" stop-color="#15080E"/>
<stop offset="0.6833" stop-color="#060204"/>
<stop offset="0.9138"/>
</linearGradient>
<linearGradient id="paint8_linear_1_16" x1="209.771" y1="128.529" x2="83.3662" y2="55.9902" gradientUnits="userSpaceOnUse">
<stop stop-color="#DD1265"/>
<stop offset="0.4834" stop-color="#DD1265"/>
<stop offset="0.9424" stop-color="#FDB60D"/>
</linearGradient>
<linearGradient id="paint9_linear_1_16" x1="113.499" y1="187.888" x2="94.059" y2="25.5794" gradientUnits="userSpaceOnUse">
<stop offset="0.2775" stop-color="#79123A"/>
<stop offset="1" stop-color="#FA4D6C"/>
</linearGradient>
<linearGradient id="paint10_linear_1_16" x1="59.497" y1="170.662" x2="89.12" y2="201.519" gradientUnits="userSpaceOnUse">
<stop offset="0.2775" stop-color="#DD1265"/>
<stop offset="0.9684" stop-color="#FDB60D"/>
</linearGradient>
<linearGradient id="paint11_linear_1_16" x1="98.526" y1="58.2536" x2="130.001" y2="161.317" gradientUnits="userSpaceOnUse">
<stop offset="0.1368" stop-color="#00AAFF"/>
<stop offset="0.3491" stop-color="#0778BB"/>
<stop offset="0.7127" stop-color="#141E3E"/>
</linearGradient>
<linearGradient id="paint12_linear_1_16" x1="162.757" y1="44.5387" x2="194.413" y2="131.954" gradientUnits="userSpaceOnUse">
<stop offset="0.00724206" stop-color="#08396C"/>
<stop offset="1" stop-color="#B72580"/>
</linearGradient>
</defs>
</svg>
