<svg version="1.1" id="Layer_1" xmlns="http://www.w3.org/2000/svg" xmlns:xlink="http://www.w3.org/1999/xlink" x="0" y="0" viewBox="0 0 761 761" xml:space="preserve"><style>.st4{fill:#fff}</style><symbol id="intellij-platform" viewBox="-248.6 -248.6 497.2 497.2"><linearGradient id="SVGID_1_" gradientUnits="userSpaceOnUse" x1="7035.32" y1="-9410.399" x2="7087.32" y2="-9410.399" gradientTransform="matrix(9.5625 0 0 -9.5625 -67523.875 -89986.945)"><stop offset="0" stop-color="#fe315d"/><stop offset=".078" stop-color="#cb417e"/><stop offset=".16" stop-color="#9e4e9b"/><stop offset=".247" stop-color="#755bb4"/><stop offset=".339" stop-color="#5365ca"/><stop offset=".436" stop-color="#386ddb"/><stop offset=".541" stop-color="#2374e9"/><stop offset=".658" stop-color="#1478f3"/><stop offset=".794" stop-color="#0b7bf8"/><stop offset="1" stop-color="#087cfa"/></linearGradient><path fill="url(#SVGID_1_)" d="M-248.6-248.6h497.2v497.2h-497.2z"/><linearGradient id="SVGID_2_" gradientUnits="userSpaceOnUse" x1="7035.388" y1="-9419.399" x2="7059.883" y2="-9419.399" gradientTransform="matrix(9.5625 0 0 -9.5625 -67523.875 -89986.945)"><stop offset=".258" stop-color="#f97a12"/><stop offset=".459" stop-color="#b07b58"/><stop offset=".724" stop-color="#577bae"/><stop offset=".91" stop-color="#1e7ce5"/><stop offset="1" stop-color="#087cfa"/></linearGradient><path fill="url(#SVGID_2_)" d="M-248.6-76.5v325.1L-13.4 0z"/><linearGradient id="SVGID_3_" gradientUnits="userSpaceOnUse" x1="7074.254" y1="-9417.607" x2="7077.254" y2="-9380.857" gradientTransform="matrix(9.5625 0 0 -9.5625 -67523.875 -89986.945)"><stop offset="0" stop-color="#fe315d"/><stop offset=".078" stop-color="#cb417e"/><stop offset=".16" stop-color="#9e4e9b"/><stop offset=".247" stop-color="#755bb4"/><stop offset=".339" stop-color="#5365ca"/><stop offset=".436" stop-color="#386ddb"/><stop offset=".541" stop-color="#2374e9"/><stop offset=".658" stop-color="#1478f3"/><stop offset=".794" stop-color="#0b7bf8"/><stop offset="1" stop-color="#087cfa"/></linearGradient><path fill="url(#SVGID_3_)" d="M83.5-248.6l-51 61.2 80.3 260.1L248.6-88.5v-76.6l-102.1-83.5z"/><linearGradient id="SVGID_4_" gradientUnits="userSpaceOnUse" x1="7047.182" y1="-9382.603" x2="7067.78" y2="-9467.122" gradientTransform="matrix(9.5625 0 0 -9.5625 -67523.875 -89986.945)"><stop offset="0" stop-color="#fe315d"/><stop offset=".04" stop-color="#f63462"/><stop offset=".104" stop-color="#df3a71"/><stop offset=".167" stop-color="#c24383"/><stop offset=".291" stop-color="#ad4a91"/><stop offset=".55" stop-color="#755bb4"/><stop offset=".917" stop-color="#1d76ed"/><stop offset="1" stop-color="#087cfa"/></linearGradient><path fill="url(#SVGID_4_)" d="M-248.6 248.6h75.4l161.7-59.3L153-63.1-9.8-248.6h-238.8v202.2l91.8 31.1z"/><g><path d="M-191.2-191.2h382.5v382.5h-382.5z"/><path class="st4" d="M-154.9 118.6h143.4v24.9h-143.4zM-51.6-112.8v-28.7H-132v28.7h23v101.3h-23v28.7h80.4v-28.7h-23v-101.3zM23 19.1c-10.7.7-21.4-2-30.6-7.6-8.2-4-15.4-9.9-21-17.2l21-24.9C-1-21.3 9.6-15.6 21-15.3c5.7.2 11.1-1.9 15.3-5.7 4.2-5.5 6.2-12.3 5.7-19.1v-101.4h36.3v103.3c-.2 8.4-1.5 16.8-3.8 24.9C73.1-6.4 69-.2 63.1 3.8 57.8 8.3 52 12.1 45.9 15.3c-7.1 3.4-15.1 4.8-22.9 3.8"/></g></symbol><use xlink:href="#intellij-platform" width="497.2" height="497.2" x="-248.6" y="-248.6" transform="translate(380.5 380.5) scale(1.2308)" overflow="visible"/></svg>