<svg version="1.1" xmlns="http://www.w3.org/2000/svg" x="0" y="0" viewBox="0 0 96 96" xml:space="preserve"><style>.st5{fill:#fff}</style><linearGradient id="SVGID_1_" gradientUnits="userSpaceOnUse" x1="81.9814" y1="31.2563" x2="68.0726" y2="71.4367" gradientTransform="matrix(1 0 0 -1 0 98)"><stop offset=".00082537" stop-color="#ff318c"/><stop offset="1" stop-color="#fe6c54"/></linearGradient><path d="M94.5 73.3L96 31.6l-26.5-6L47 40.7l10.5 30.9 37 1.7z" fill="url(#SVGID_1_)"/><linearGradient id="SVGID_2_" gradientUnits="userSpaceOnUse" x1="85.5873" y1="74.7809" x2="73.3827" y2="59.2809" gradientTransform="matrix(1 0 0 -1 0 98)"><stop offset="0" stop-color="#ff546a"/><stop offset=".7814" stop-color="#fe764a"/></linearGradient><path d="M88.6 50.9L96 31.6 70 20.1 47 40.7l41.6 10.2z" fill="url(#SVGID_2_)"/><linearGradient id="SVGID_3_" gradientUnits="userSpaceOnUse" x1="80.5537" y1="12.4182" x2="10.5099" y2="37.6918" gradientTransform="matrix(1 0 0 -1 0 98)"><stop offset=".016776" stop-color="#ff318c"/><stop offset=".8106" stop-color="#6b57ff"/></linearGradient><path d="M61.4 96l33.1-22.7L15 37.9 0 80.5 61.4 96z" fill="url(#SVGID_3_)"/><linearGradient id="SVGID_4_" gradientUnits="userSpaceOnUse" x1="27.1597" y1="31.0304" x2="56.9484" y2="83.6443" gradientTransform="matrix(1 0 0 -1 0 98)"><stop offset=".3305" stop-color="#ff318c"/><stop offset=".9422" stop-color="#fdb60d"/></linearGradient><path d="M0 36.7L52.9 77l35.7-26.1-40.5-45L12.7 0 0 36.7z" fill="url(#SVGID_4_)"/><linearGradient id="SVGID_5_" gradientUnits="userSpaceOnUse" x1="48" y1="94.5853" x2="48" y2="40.7773" gradientTransform="matrix(1 0 0 -1 0 98)"><stop offset=".0842986" stop-color="#878585"/><stop offset=".5377"/></linearGradient><path d="M78 18H18v60h60V18z" fill="url(#SVGID_5_)"/><path class="st5" d="M47.9 66.6H25.4v3.7h22.4v-3.7zM25.5 25.9h9c5.3 0 8.4 3.1 8.4 7.6v.1c0 5.1-3.9 7.7-8.9 7.7h-3.7v6.5h-4.8V25.9zM34.2 37c2.4 0 3.8-1.5 3.8-3.3v-.1c0-2.1-1.5-3.3-3.9-3.3h-3.7V37h3.8zM48 48.3c-1.7 0-3.2-.3-4.3-1-1.2-.6-2.1-1.4-2.9-2.3l3-3.4c.6.7 1.3 1.2 1.9 1.6.6.4 1.4.6 2.1.6.9 0 1.6-.3 2.2-.9.5-.6.8-1.5.8-2.8V25.9h5v14.4c0 1.3-.2 2.5-.5 3.4-.4 1-.9 1.8-1.5 2.5-.7.7-1.5 1.2-2.5 1.5-1 .4-2.1.6-3.3.6z"/></svg>