<svg width="70" height="70" xmlns="http://www.w3.org/2000/svg"><defs><linearGradient x1="57.351%" y1="86.507%" x2="36.467%" y2="11.181%" id="a"><stop stop-color="#7866FF" offset="4.8%"/><stop stop-color="#8265FA" offset="13.5%"/><stop stop-color="#9C64EE" offset="28.1%"/><stop stop-color="#C661D9" offset="46.7%"/><stop stop-color="#EB5FC7" offset="60.8%"/><stop stop-color="#FA6398" offset="72.9%"/><stop stop-color="#FF6488" offset="76.9%"/><stop stop-color="#FF7500" offset="99.5%"/></linearGradient><linearGradient x1="59.551%" y1="59.103%" x2="48.158%" y2="50.067%" id="b"><stop stop-color="#7866FF" offset="24.7%"/><stop stop-color="#8F5FFA" offset="34.6%"/><stop stop-color="#B353F1" offset="53.1%"/><stop stop-color="#CD4AEB" offset="70.5%"/><stop stop-color="#DD45E7" offset="85.9%"/><stop stop-color="#E343E6" offset="97.9%"/></linearGradient><linearGradient x1="74.163%" y1="57.269%" x2="20.234%" y2="31.489%" id="c"><stop stop-color="#E343E6" offset=".6%"/><stop stop-color="#E649CA" offset="6.4%"/><stop stop-color="#EF5982" offset="19%"/><stop stop-color="#FD7110" offset="37.2%"/><stop stop-color="#FF7500" offset="39.8%"/></linearGradient></defs><g fill-rule="nonzero" fill="none"><path fill="url(#a)" d="M42.8 0L0 4.8v22l10.7 35.8 53.9-13.7z"/><path fill="url(#b)" d="M70 41.3l-4.1-19.1-9.2 12.7-6.4 19.3L48.2 70 64 60z"/><path fill="url(#c)" d="M65.9 22.2l-13.4-6.4-15.7 1.4-15.4 10.7-3.1 19.2 13.5 18.4L48.2 70z"/><path fill="#000" d="M13.4 13.4h43.2v43.2H13.4z"/><g fill="#FFF"><path d="M17.5 19.1h7c5.6 0 9.5 3.9 9.5 8.9v.1c0 5-3.9 8.9-9.5 8.9h-7V19.1zm3.9 3.6v10.8h3c3.2 0 5.4-2.2 5.4-5.3v-.1c0-3.2-2.2-5.4-5.4-5.4h-3zM17.5 48.5h16.2v2.7H17.5zM35.4 28.1c0-5.1 3.8-9.3 9.3-9.3 3.4 0 5.4 1.1 7.1 2.8l-2.5 2.9c-1.4-1.3-2.8-2-4.6-2-3 0-5.2 2.5-5.2 5.6v.1c0 3.1 2.1 5.6 5.2 5.6 2 0 3.3-.8 4.7-2.1l2.5 2.5c-1.8 2-3.9 3.2-7.3 3.2-5.2-.1-9.2-4.1-9.2-9.3"/></g></g></svg>