<svg width="70" height="70" xmlns="http://www.w3.org/2000/svg"><defs><linearGradient x1="1.409%" y1="113.41%" x2="75.624%" y2="32.956%" id="a"><stop stop-color="#765AF8" offset="1.6%"/><stop stop-color="#B345F1" offset="38.2%"/><stop stop-color="#FA3293" offset="75.8%"/><stop stop-color="#FF318C" offset="94.1%"/></linearGradient><linearGradient x1="30.376%" y1="86.98%" x2="81.468%" y2="-9.673%" id="b"><stop stop-color="#765AF8" offset="1.6%"/><stop stop-color="#B345F1" offset="38.2%"/><stop stop-color="#FA3293" offset="75.8%"/><stop stop-color="#FF318C" offset="94.1%"/></linearGradient><linearGradient x1="60.035%" y1="88.807%" x2="25.415%" y2="15.219%" id="c"><stop stop-color="#765AF8" offset="18.3%"/><stop stop-color="#8655F6" offset="23.8%"/><stop stop-color="#9F4CF3" offset="34.5%"/><stop stop-color="#AE47F2" offset="44.3%"/><stop stop-color="#B345F1" offset="52.2%"/></linearGradient><linearGradient x1="76.603%" y1="80.758%" x2="27.431%" y2="35.435%" id="d"><stop stop-color="#765AF8" offset="1.6%"/><stop stop-color="#B345F1" offset="38.2%"/></linearGradient></defs><g fill-rule="nonzero" fill="none"><path fill="url(#a)" d="M39.6 15.2l-3.3-10L11.9 0 0 13.5l37.2 19z"/><path fill="url(#b)" d="M28 41.4l-.7-20.8L0 13.5l6.7 40.1 21.3-.2z"/><path fill="url(#c)" d="M22.1 41l1.3-16.5L43.2 4.2l17.7 3.2L70 30.1l-9.5 9.4L45 37l-9.6 10.1z"/><path fill="url(#d)" d="M43.2 4.2L14.8 29.4l5.5 32.4L43.9 70 70 54.4z"/><path fill="#000" d="M13.4 13.4h43.2v43.2H13.4z"/><path fill="#FFF" d="M17.5 48.5h16.2v2.7H17.5zM17.3 19h7.3c4.3 0 6.9 2.5 6.9 6.2v.1c0 4.2-3.2 6.3-7.3 6.3h-3V37h-3.9V19zm7.1 9c2 0 3.1-1.2 3.1-2.7v-.1c0-1.8-1.2-2.7-3.2-2.7h-3V28h3.1zM32.5 34.4l2.3-2.8c1.6 1.3 3.3 2.2 5.4 2.2 1.6 0 2.6-.6 2.6-1.7V32c0-1-.6-1.5-3.6-2.3-3.6-.9-6-1.9-6-5.5v-.1c0-3.3 2.6-5.4 6.3-5.4 2.6 0 4.9.8 6.7 2.3l-2.1 3c-1.6-1.1-3.2-1.8-4.7-1.8s-2.3.7-2.3 1.6v.1c0 1.2.8 1.6 3.9 2.4 3.6 1 5.7 2.3 5.7 5.4v.1c0 3.6-2.7 5.6-6.6 5.6-2.7-.1-5.4-1.1-7.6-3"/></g></svg>