<svg width="70" height="70" xmlns="http://www.w3.org/2000/svg"><defs><linearGradient x1="15.972%" y1="110.56%" x2="74.667%" y2="9.931%" id="a"><stop stop-color="#B35BA3" offset="1.6%"/><stop stop-color="#C41E57" offset="40.4%"/><stop stop-color="#C41E57" offset="46.8%"/><stop stop-color="#EB8523" offset="65%"/><stop stop-color="#FEBD11" offset="95.2%"/></linearGradient><linearGradient x1="33.125%" y1="104.703%" x2="75.018%" y2="25.931%" id="b"><stop stop-color="#B35BA3" offset="1.6%"/><stop stop-color="#C41E57" offset="40.4%"/><stop stop-color="#C41E57" offset="46.8%"/><stop stop-color="#EB8523" offset="70.4%"/></linearGradient><linearGradient x1="3.288%" y1="95.522%" x2="87.815%" y2="28.176%" id="c"><stop stop-color="#B35BA3" offset="1.6%"/><stop stop-color="#C41E57" offset="66.1%"/></linearGradient><linearGradient x1="50.855%" y1="-24.537%" x2="50.22%" y2="51.03%" id="d"><stop stop-color="#C41E57" offset="50%"/><stop stop-color="#D13F48" offset="66.7%"/><stop stop-color="#D94F39" offset="79.5%"/><stop stop-color="#DD5433" offset="86.6%"/></linearGradient></defs><g fill-rule="nonzero" fill="none"><path fill="url(#a)" d="M49.8 15.2L36 36.7 58.4 70 70 23.1z"/><path fill="url(#b)" d="M51.1 15.7L49 0 18.8 33.6l8.8 8.7L20.8 70h37.6z"/><path fill="url(#c)" d="M49 0H11.6L0 47.1h55.6z"/><path fill="url(#d)" d="M55.3 47.1l-4.2-31.4L49 0l-7.3 23z"/><path fill="#000" d="M56.594 56.616l-43.2.111-.111-43.2 43.2-.111z"/><path fill="#FFF" d="M17.596 48.62l16.2-.041.007 2.7-16.2.042zM17.4 19.1h8.2c2.3 0 4 .6 5.2 1.8 1 1 1.5 2.4 1.5 4.1v.1c0 1.5-.3 2.6-1.1 3.5-.7.9-1.6 1.6-2.8 2l4.4 6.4h-4.6l-3.7-5.5h-3.3V37h-3.9l.1-17.9zm7.9 8.7c1 0 1.7-.2 2.2-.7.5-.5.8-1.1.8-1.8v-.1c0-.9-.3-1.5-.8-1.9-.5-.4-1.3-.6-2.3-.6h-3.9v5.1h4zM36 33.2h-1.9v-3.3h2.5l.6-3.8h-2.3v-3.3h2.8l.6-3.7h3.4l-.6 3.7h3.7l.6-3.7h3.4l-.6 3.7h1.9v3.3h-2.5l-.6 3.8h2.3v3.3h-2.8l-.7 3.8h-3.4l.7-3.8h-3.7l-.7 3.8h-3.4l.7-3.8zm7.7-3.3l.6-3.8h-3.7l-.6 3.8h3.7z"/></g></svg>