<svg width="72" height="72" xmlns="http://www.w3.org/2000/svg"><defs><linearGradient x1="30.691%" y1=".024%" x2="50%" y2="88.244%" id="a"><stop stop-color="#FFF73A" offset="0%"/><stop stop-color="#11E9CF" offset="100%"/></linearGradient><linearGradient x1=".788%" y1="47.589%" x2="72.96%" y2="67.743%" id="b"><stop stop-color="#B7FF1D" offset="0%"/><stop stop-color="#2787FF" offset="100%"/></linearGradient><linearGradient x1="7.491%" y1="74.674%" x2="77.29%" y2="9.172%" id="c"><stop stop-color="#51CBFF" offset="0%"/><stop stop-color="#003FB9" offset="100%"/></linearGradient></defs><g fill-rule="nonzero" fill="none"><path d="M13.038 73A71.95 71.95 0 0072 31.674 71.975 71.975 0 006.735 1.275C-4.119 24.6-1.738 51.917 13.038 73z" fill="url(#a)" transform="translate(0 -1)"/><path d="M6.806 1.276S29.634 9.331 44.69 31.675H72C58.505 12.326 36.457 1 13.11 1c-2.093 0-4.196.09-6.304.275v.001z" fill="url(#b)" transform="translate(0 -1)"/><path d="M44.693 31.675C41.4 53.445 13.037 73 13.037 73 38.824 70.553 61.451 55.094 72 31.667l-27.307.008z" fill="url(#c)" transform="translate(0 -1)"/></g></svg>