<svg width="70" height="70" xmlns="http://www.w3.org/2000/svg"><defs><linearGradient x1="108.619%" y1="47.413%" x2="16.041%" y2="54.655%" id="a"><stop stop-color="#FF8200" offset="0%"/><stop stop-color="#905CFB" offset="97.3%"/></linearGradient><linearGradient x1="42.746%" y1="75.619%" x2="54.777%" y2="9.741%" id="b"><stop stop-color="#0CB0F2" offset="0%"/><stop stop-color="#905CFB" offset="97.3%"/></linearGradient><linearGradient x1="84.438%" y1="68.416%" x2="23.03%" y2="34.906%" id="c"><stop stop-color="#0CB0F2" offset="0%"/><stop stop-color="#905CFB" offset="97.3%"/></linearGradient><linearGradient x1="86.41%" y1="52.992%" x2="7.827%" y2="38.231%" id="d"><stop stop-color="#0CB0F2" offset="0%"/><stop stop-color="#905CFB" offset="97.3%"/></linearGradient><linearGradient x1="87.616%" y1="25.187%" x2="-19.678%" y2="99.318%" id="e"><stop stop-color="#FF8200" offset="0%"/><stop stop-color="#905CFB" offset="97.3%"/></linearGradient><linearGradient x1="123.231%" y1="67.402%" x2="15.893%" y2="21.783%" id="f"><stop stop-color="#0CB0F2" offset="0%"/><stop stop-color="#905CFB" offset="97.3%"/></linearGradient></defs><g fill-rule="nonzero" fill="none"><path fill="url(#a)" d="M61.5 24l-50.9 2.9-.3-19.5L56.2.2z" transform="translate(-1)"/><path d="M21.3 43.2l16.4-20.8-17.8-12.2c-3.1-2.8-7.8-4-12.6-2-2.4 1-4.3 2.9-5.3 5.3-2.1 5-.8 9.9 2.4 12.9l16.9 16.8z" fill="url(#b)" transform="translate(-1)"/><path fill="url(#c)" d="M21.3 43.2l25.2 24.9 15.7-29.3-24.5-16.4z" transform="translate(-1)"/><path d="M54.9 36.6l-41.9-2c-1.6-.3-3.4-.2-5.3.6-1.8.8-3.2 2.1-3.9 3.9-2.1 4.9.4 9.6 4.5 11.2L45.8 68c.5.3 3 1 3 1 2 .6 4.2.9 6.2.9 2.5 0 5.3-.7 8.1-2.1 2.6-1.3 4.2-3.4 5.6-6 1.7-3 2.2-5.8 2.2-8.6-.1-8.7-7.3-16-16-16.6z" fill="url(#d)" transform="translate(-1)"/><path d="M53.1 1.1c-.7.3-1.4.7-2 1.1L27.9 19.7l11.5 16.8 25.2-14.1c1.9-.9 3.4-2.5 4.3-4.3 5.6-10.8-4.8-21.6-15.8-17z" fill="url(#e)" transform="translate(-1)"/><path fill="#905CFB" d="M14.5 49.8l23.9-13.3-11.5-16.8-22 16.5z"/><path d="M21.4 56.4V35l-8.4-.4c-1.6-.3-3.4-.2-5.3.6-1.8.8-3.2 2.1-3.9 3.9-2.1 4.9.4 9.6 4.5 11.2h.1l13 6.1z" fill="url(#f)" transform="translate(-1)"/><path fill="#000" d="M13.4 13.4h43.2v43.2H13.4z"/><g fill="#FFF"><path d="M17.5 29.4V19h4v10.3c0 3 1.5 4.5 3.9 4.5s3.9-1.5 3.9-4.4V19h4v10.2c0 5.5-3.1 8.2-8 8.2-4.8.1-7.8-2.7-7.8-8zM35.4 19h7.4c4.3 0 6.9 2.6 6.9 6.3v.1c0 4.2-3.3 6.4-7.3 6.4h-3v5.4h-4V19zm7.2 9.2c2 0 3.2-1.2 3.2-2.7v-.1c0-1.8-1.2-2.7-3.2-2.7h-3.1v5.5h3.1z"/></g><path fill="#FFF" d="M17.5 48.5h16.2v2.7H17.5z"/></g></svg>