<svg width="70" height="70" xmlns="http://www.w3.org/2000/svg"><defs><linearGradient x1="39.49%" y1="7.388%" x2="62.721%" y2="68.445%" id="a"><stop stop-color="#7866FF" offset="0%"/><stop stop-color="#7E64FE" offset="2.3%"/><stop stop-color="#AA56F3" offset="19.5%"/><stop stop-color="#C94CEC" offset="34.9%"/><stop stop-color="#DC45E8" offset="48%"/><stop stop-color="#E343E6" offset="57%"/><stop stop-color="#E859BC" offset="64.1%"/><stop stop-color="#F48F58" offset="81.9%"/><stop stop-color="#FCB019" offset="94.2%"/><stop stop-color="#FFBD00" offset="100%"/></linearGradient><linearGradient x1="63.636%" y1="76.45%" x2="34.134%" y2="27.405%" id="b"><stop stop-color="#7866FF" offset="0%"/><stop stop-color="#965CF8" offset="20.2%"/><stop stop-color="#E343E6" offset="64%"/><stop stop-color="#FFBD00" offset="96.8%"/></linearGradient><linearGradient x1="37.647%" y1="65.629%" x2="51.729%" y2="48.021%" id="c"><stop stop-color="#E343E6" offset="11.8%"/><stop stop-color="#C84CEC" offset="21.1%"/><stop stop-color="#AB55F3" offset="33.8%"/><stop stop-color="#955DF8" offset="47.2%"/><stop stop-color="#8562FC" offset="61.8%"/><stop stop-color="#7B65FE" offset="78.1%"/><stop stop-color="#7866FF" offset="100%"/></linearGradient></defs><g fill-rule="nonzero" fill="none"><path fill="url(#a)" d="M8 65.1L.1 37.6l51.6 7.6L44.3 70z"/><path fill="url(#b)" d="M23.5.1l18.6 5.3L63.2 0 70 46.3l-56.6-8.7z"/><path fill="url(#c)" d="M70 46.1l-2.7-17.2-41.7-14.5L.1 19.9 0 37.7l49.6 13.6z"/><path fill="#000" d="M13.4 13.4h43.2v43.2H13.4z"/><path fill="#FFF" d="M17.4 48.5h16.2v2.7H17.4zM17.4 19h6.9c5.6 0 9.5 3.9 9.5 8.9v.1c0 5-3.9 9-9.5 9h-6.9V19zm3.9 3.6v10.8h2.9c3.2 0 5.4-2.2 5.4-5.4s-2.2-5.4-5.4-5.4h-2.9zM34.8 19.1h4.3l4.6 7.5 4.7-7.5h4.2v17.8h-3.9V25.2l-5 7.6h-.1l-4.9-7.5v11.6h-3.9z"/></g></svg>