<svg width="70" height="70" xmlns="http://www.w3.org/2000/svg"><defs><linearGradient x1="22.067%" y1="12.31%" x2="95.434%" y2="86.902%" id="a"><stop stop-color="#E343E6" offset="9.7%"/><stop stop-color="#D948E8" offset="10.8%"/><stop stop-color="#AC5DEF" offset="16.5%"/><stop stop-color="#876FF5" offset="22.2%"/><stop stop-color="#6B7DF9" offset="27.9%"/><stop stop-color="#5687FC" offset="33.6%"/><stop stop-color="#4A8DFE" offset="39.2%"/><stop stop-color="#468FFF" offset="44.6%"/><stop stop-color="#00CAFF" offset="93.5%"/></linearGradient><linearGradient x1="14.681%" y1="70.056%" x2="49.913%" y2="52.521%" id="b"><stop stop-color="#E343E6" offset="9.7%"/><stop stop-color="#DE45E7" offset="11.8%"/><stop stop-color="#B951F0" offset="28.9%"/><stop stop-color="#9D5AF6" offset="46.2%"/><stop stop-color="#8861FB" offset="63.2%"/><stop stop-color="#7C65FE" offset="80.2%"/><stop stop-color="#7866FF" offset="96.8%"/></linearGradient><linearGradient x1="44.382%" y1="32.359%" x2="74.827%" y2="93.551%" id="c"><stop stop-color="#E343E6" offset="19.9%"/><stop stop-color="#DA46E8" offset="31%"/><stop stop-color="#C24EEE" offset="49.1%"/><stop stop-color="#9A5BF7" offset="71.8%"/><stop stop-color="#7866FF" offset="88.7%"/></linearGradient><linearGradient x1="8.368%" y1="53.72%" x2="93.487%" y2="40.627%" id="d"><stop stop-color="#E343E6" offset="9.7%"/><stop stop-color="#DA48E7" offset="17.5%"/><stop stop-color="#C157EA" offset="30.2%"/><stop stop-color="#996FEE" offset="46.4%"/><stop stop-color="#6290F4" offset="65.3%"/><stop stop-color="#1CB9FC" offset="86.3%"/><stop stop-color="#00CAFF" offset="94.1%"/></linearGradient></defs><g fill-rule="nonzero" fill="none"><path fill="url(#a)" d="M44.3 20.9L5.2 30.3 0 40.8 14.1 70l35.2-6.1z"/><path fill="url(#b)" d="M65.8 31.5L38.2 14 0 22.1v18.7l62.6 12.5z"/><path fill="url(#c)" d="M70 31.3L39.6 0 15.8 7.2l7.8 23.7 39 22.4z"/><path fill="url(#d)" d="M64.5 19.6L61.8 0H39.6L15.8 7.2l7.8 23.7z"/><path fill="#000" d="M13.4 13.4h43.2v43.2H13.4z"/><path fill="#FFF" d="M17.4 48.5h16.2v2.7H17.4z"/><g fill="#FFF"><path d="M17.5 19.1h7c5.6 0 9.5 3.9 9.5 8.9v.1c0 5-3.9 8.9-9.5 8.9h-7V19.1zm3.9 3.6v10.8h3c3.2 0 5.4-2.2 5.4-5.3v-.1c0-3.2-2.2-5.4-5.4-5.4h-3zM35.6 19.1h7.3c4.3 0 6.9 2.5 6.9 6.2v.1c0 4.1-3.2 6.3-7.2 6.3h-3V37h-3.9V19.1h-.1zm7 9c2 0 3.1-1.2 3.1-2.7v-.1c0-1.8-1.2-2.7-3.2-2.7h-3v5.5h3.1z"/></g></g></svg>