<svg width="62" height="62" viewBox="0 0 62 62" fill="none" xmlns="http://www.w3.org/2000/svg">
<path d="M61.153 26.85C61.153 36.346 50.99 44.044 38.453 44.044C25.917 44.044 15.754 36.346 15.754 26.85C15.754 17.354 25.917 9.656 38.454 9.656C50.99 9.656 61.153 17.354 61.153 26.85V26.85Z" fill="url(#paint0_radial_1_24)"/>
<path d="M61.153 26.85C61.153 36.346 50.99 44.044 38.453 44.044C25.917 44.044 15.754 36.346 15.754 26.85C15.754 17.354 25.917 9.656 38.454 9.656C50.99 9.656 61.153 17.354 61.153 26.85V26.85Z" fill="url(#paint1_radial_1_24)"/>
<path d="M62 31C62 48.12 48.12 62 31 62C13.88 62 0 48.12 0 31C0 13.88 13.88 0 31 0C39.046 3.642 47.464 17.194 50.99 21.429C54.514 25.664 63.638 31 59.166 19.806C61.073 22.832 62 27.852 62 31Z" fill="url(#paint2_radial_1_24)"/>
<path d="M62 31C62 48.12 48.12 62 31 62C13.88 62 0 48.12 0 31C0 13.88 13.88 0 31 0C39.046 3.642 47.464 17.194 50.99 21.429C54.514 25.664 63.638 31 59.166 19.806C61.073 22.832 62 27.852 62 31Z" fill="url(#paint3_radial_1_24)"/>
<path d="M62 31C62 48.12 48.12 62 31 62C13.88 62 0 48.12 0 31C0 13.88 13.88 0 31 0C39.046 3.642 47.464 17.194 50.99 21.429C54.514 25.664 63.638 31 59.166 19.806C61.073 22.832 62 27.852 62 31Z" fill="url(#paint4_radial_1_24)"/>
<path d="M62 31C62 48.12 48.12 62 31 62C13.88 62 0 48.12 0 31C0 13.88 13.88 0 31 0C39.046 3.642 47.464 17.194 50.99 21.429C54.514 25.664 63.638 31 59.166 19.806C61.073 22.832 62 27.852 62 31Z" fill="url(#paint5_linear_1_24)"/>
<path d="M52.651 35.682C54.309 43.446 46.14 51.771 34.405 54.276C22.671 56.781 11.815 52.519 10.157 44.756C8.499 36.992 16.668 28.667 28.403 26.162C40.137 23.656 50.993 27.919 52.651 35.682V35.682Z" fill="url(#paint6_radial_1_24)"/>
<path d="M52.651 35.682C54.309 43.446 46.14 51.771 34.405 54.276C22.671 56.781 11.815 52.519 10.157 44.756C8.499 36.992 16.668 28.667 28.403 26.162C40.137 23.656 50.993 27.919 52.651 35.682V35.682Z" fill="url(#paint7_linear_1_24)"/>
<path fill-rule="evenodd" clip-rule="evenodd" d="M47.462 45.883C50.536 42.75 51.848 39.223 51.16 36.001C50.472 32.778 47.834 30.094 43.749 28.491C39.676 26.891 34.337 26.454 28.721 27.653C23.105 28.852 18.411 31.432 15.346 34.554C12.272 37.687 10.96 41.214 11.648 44.437C12.336 47.66 14.974 50.343 19.06 51.947C23.132 53.547 28.47 53.984 34.087 52.785C39.703 51.585 44.397 49.006 47.462 45.883V45.883ZM34.405 54.276C46.14 51.771 54.309 43.446 52.651 35.682C50.993 27.919 40.137 23.656 28.403 26.162C16.668 28.667 8.499 36.992 10.157 44.755C11.815 52.519 22.671 56.781 34.405 54.276V54.276Z" fill="#D6F8F8" fill-opacity="0.19"/>
<defs>
<radialGradient id="paint0_radial_1_24" cx="0" cy="0" r="1" gradientUnits="userSpaceOnUse" gradientTransform="translate(34.648 38.538) rotate(-42.6352) scale(30.3859 40.1154)">
<stop offset="0.771" stop-color="#001AFF"/>
<stop offset="1" stop-color="#8ACEFF"/>
</radialGradient>
<radialGradient id="paint1_radial_1_24" cx="0" cy="0" r="1" gradientUnits="userSpaceOnUse" gradientTransform="translate(42.685 26.8499) rotate(-30.543) scale(16.777 22.1489)">
<stop offset="0.719" stop-color="#FA00FF" stop-opacity="0"/>
<stop offset="1" stop-color="#FF00D6" stop-opacity="0.44"/>
</radialGradient>
<radialGradient id="paint2_radial_1_24" cx="0" cy="0" r="1" gradientUnits="userSpaceOnUse" gradientTransform="translate(20.8588 25.6504) rotate(49.385) scale(47.8852)">
<stop offset="0.026" stop-color="#8DFDFD"/>
<stop offset="0.271" stop-color="#87FBFB"/>
<stop offset="0.484" stop-color="#74D6F4"/>
<stop offset="0.932" stop-color="#0038FF"/>
</radialGradient>
<radialGradient id="paint3_radial_1_24" cx="0" cy="0" r="1" gradientUnits="userSpaceOnUse" gradientTransform="translate(28.1088 29.8187) rotate(137.237) scale(32.8316)">
<stop offset="0.267" stop-color="#0500FF" stop-opacity="0"/>
<stop offset="1" stop-color="#0500FF" stop-opacity="0.15"/>
</radialGradient>
<radialGradient id="paint4_radial_1_24" cx="0" cy="0" r="1" gradientUnits="userSpaceOnUse" gradientTransform="translate(24.1017 24.7698) rotate(75.198) scale(51.1484)">
<stop offset="0.42" stop-color="#FF00E5" stop-opacity="0"/>
<stop offset="0.774" stop-color="#FF00F5" stop-opacity="0.64"/>
<stop offset="0.899" stop-color="#BE46FF" stop-opacity="0.87"/>
</radialGradient>
<linearGradient id="paint5_linear_1_24" x1="7.644" y1="38.432" x2="78.363" y2="39.401" gradientUnits="userSpaceOnUse">
<stop offset="0.432" stop-color="#FE62EE" stop-opacity="0"/>
<stop offset="0.818" stop-color="#FD3AF5" stop-opacity="0.47"/>
</linearGradient>
<radialGradient id="paint6_radial_1_24" cx="0" cy="0" r="1" gradientUnits="userSpaceOnUse" gradientTransform="translate(25.458 31.276) rotate(83.1477) scale(22.9221 34.6462)">
<stop stop-color="#00B2FF"/>
<stop offset="0.571" stop-color="#74C5FF"/>
<stop offset="0.979" stop-color="#9FD7FF"/>
</radialGradient>
<linearGradient id="paint7_linear_1_24" x1="29.054" y1="19.191" x2="33.35" y2="45.344" gradientUnits="userSpaceOnUse">
<stop offset="0.042" stop-color="#0038FF"/>
<stop offset="0.724" stop-color="#48BFF1" stop-opacity="0.59"/>
<stop offset="1" stop-color="#74C5FF" stop-opacity="0"/>
</linearGradient>
</defs>
</svg>
