<svg width="70" height="70" xmlns="http://www.w3.org/2000/svg"><defs><linearGradient x1="50.279%" y1="26.486%" x2="48.884%" y2="71.731%" id="a"><stop stop-color="#00B8F1" offset="32.8%"/><stop stop-color="#9758FB" offset="97.3%"/></linearGradient><linearGradient x1="80.742%" y1="76.411%" x2="-19.071%" y2="-17.438%" id="b"><stop stop-color="#FFEE45" offset="0%"/><stop stop-color="#9758FB" offset="100%"/></linearGradient><linearGradient x1="67.877%" y1="26.047%" x2="46.791%" y2="63.249%" id="c"><stop stop-color="#00B8F1" offset="32.8%"/><stop stop-color="#9758FB" offset="79%"/></linearGradient><linearGradient x1="-4.843%" y1="49.999%" x2="98.427%" y2="49.999%" id="d"><stop stop-color="#00B8F1" offset="0%"/><stop stop-color="#9758FB" offset="30.6%"/><stop stop-color="#FFEE45" offset="98.9%"/></linearGradient></defs><g fill-rule="nonzero" fill="none"><path d="M61.3.9c-1.7-.8-3.6-1-5.5-.8-.3 0-45.3 3.8-45.3 3.8l31.8 37.5 5.8.3L66.3 22c6.1-6.1 4.8-17-5-21.1z" fill="url(#a)"/><path d="M53.6 47.2l-1.3 2-16-19.5-15.5 10.4L46.5 68c.5.5 1.2.9 1.9 1.3 1.4.7 3 .9 4.6.4 1.5-.4 2.6-1.2 3.5-2.1l10.8-10.7-13.7-9.7z" fill="url(#b)"/><path d="M45.7 41.6L19.6 8.4c-1.1-1.6-2.8-2.9-5-3.8-1.7-.7-3.7-.9-5.5-.5C-.5 6.2-2.7 16.7 3.5 22.3l18.1 18.6 24.1.7z" fill="url(#c)"/><path d="M63.2 40.5c-3.4-1-5.3-.7-9.8-.8l-38-5.4L4.5 44.7c-6.9 6.8-5.8 18.7 4.4 23.8 2.6 1.3 5.5 1.7 8.2 1.3 19.3-3.6 43.5-9.4 43.7-9.4.4-.1.9-.2 1.3-.3 6.3-1.9 8.9-7.8 7.4-12.8-.8-2.8-3-5.8-6.3-6.8z" fill="url(#d)"/><path fill="#000" d="M13.4 13.4h43.2v43.2H13.4z"/><g fill="#FFF"><path d="M17.4 19.1h4v7.2h7.4v-7.2h4v18.1h-4v-7.3h-7.4v7.3h-4zM35.7 19.1h8.4c2.1 0 3.7.6 4.7 1.6.8.8 1.2 1.8 1.2 3.1v.1c0 2-1.1 3.2-2.4 3.9 2.1.8 3.4 2 3.4 4.5v.1c0 3.3-2.7 5-6.8 5h-8.6V19.1h.1zm10.5 5.3c0-1.2-.9-1.9-2.6-1.9h-3.9v3.8h3.7c1.7.1 2.8-.5 2.8-1.9zm-2 5.3h-4.6v4h4.7c1.8 0 2.8-.6 2.8-2v-.1c.1-1.1-.8-1.9-2.9-1.9z"/></g><path fill="#FFF" d="M17.5 48.5h16.2v2.7H17.5z"/></g></svg>