<svg width="70" height="70" xmlns="http://www.w3.org/2000/svg"><defs><linearGradient x1="39.882%" y1="1.717%" x2="63.881%" y2="99.557%" id="a"><stop stop-color="#C40B55" offset="22%"/><stop stop-color="#E343E6" offset="68.3%"/><stop stop-color="#F59252" offset="92.5%"/></linearGradient><linearGradient x1="66.875%" y1="104.703%" x2="24.982%" y2="25.931%" id="b"><stop stop-color="#FFBD00" offset="11.3%"/><stop stop-color="#E343E6" offset="58.6%"/><stop stop-color="#EC841B" offset="81.7%"/><stop stop-color="#FFBD00" offset="93.5%"/></linearGradient><linearGradient x1="9.184%" y1=".016%" x2="99.918%" y2="104.178%" id="c"><stop stop-color="#FFBD00" offset="12.9%"/><stop stop-color="#E343E6" offset="64%"/><stop stop-color="#C40B55" offset="90.9%"/></linearGradient></defs><g fill-rule="nonzero" fill="none"><path fill="url(#a)" d="M20.2 15.2L34 36.7 11.6 70 0 23.1z"/><path fill="url(#b)" d="M18.9 15.7L21 0l30.2 33.6-8.8 8.7L49.2 70H11.6z"/><path fill="url(#c)" d="M35.3 47.1H70L58.4 0H21z"/><path fill="#000" d="M13.4 13.4h43.2v43.2H13.4z"/><path d="M17.4 19h8.2c2.3 0 4 .6 5.2 1.8 1 1 1.5 2.4 1.5 4.1v.1c0 1.5-.4 2.6-1.1 3.5-.7.9-1.6 1.6-2.8 2l4.4 6.4h-4.6l-3.7-5.5h-3.3v5.5h-3.9V19h.1zm8 8.7c1 0 1.7-.2 2.2-.7.5-.5.8-1.1.8-1.8v-.1c0-.9-.3-1.5-.8-1.9-.5-.4-1.3-.6-2.3-.6h-3.9v5.1h4zM17.4 48.5h16.2v2.7H17.4zM43.7 24.4h-4v-3.6h4v-4h3.7v4h4v3.6h-4v4h-3.7zM37.1 34.6h-4V31h4v-4h3.7v4h4v3.6h-4v4h-3.7z" fill="#FFF"/></g></svg>