<svg fill="none" height="40" viewBox="0 0 88 40" width="88" xmlns="http://www.w3.org/2000/svg"><path clip-rule="evenodd" d="m44 8.63184c.6905 0 1.324.17231 1.8994.51757.5752.30689 1.0164.74796 1.3233 1.32329.3452.5754.5175 1.2088.5175 1.8994 0 .6903-.1724 1.3231-.5175 1.8984-.2035.3815-.4676.7109-.7891.9912.3215.2635.5856.5843.7891.9658.3451.5753.5175 1.2082.5175 1.8985 0 .6905-.1723 1.324-.5175 1.8994-.2035.3815-.4676.7109-.7891.9912.3214.2635.5856.5844.7891.9658.345.5753.5175 1.2081.5175 1.8985 0 .6905-.1723 1.3239-.5175 1.8994-.2034.3813-.4678.71-.7891.9902.3215.2635.5856.5843.7891.9658.3452.5755.5175 1.2089.5175 1.8994 0 .6904-.1724 1.3232-.5175 1.8985-.2035.3814-.4677.7109-.7891.9912.1577.1292.3013.272.4307.4297.2801-.3211.61-.5838.9912-.7871.5754-.3453 1.2088-.5186 1.8994-.5186.6904.0001 1.3231.1734 1.8984.5186.3812.2033.7025.466.9658.7871.2802-.3211.6101-.5838.9913-.7871.5753-.3453 1.208-.5185 1.8984-.5186.6905 0 1.3239.1733 1.8994.5186.3756.2003.6929.4586.9541.7734.2776-.315.6038-.573.9795-.7734.5755-.3453 1.2089-.5186 1.8994-.5186s1.324.1733 1.8994.5186c.3809.2032.7017.4662.9649.7871.1373-.1574.2866-.3006.4482-.4297-.3296-.2801-.6092-.6102-.8379-.9912-.3068-.5754-.4609-1.2081-.4609-1.8985 0-.6905.154-1.3239.4609-1.8994.2287-.381.5083-.7025.8379-.9658-.3294-.28-.6093-.6094-.8379-.9902-.3069-.5755-.4609-1.2089-.4609-1.8994 0-.6904.1541-1.3231.4609-1.8985.2286-.381.5084-.7025.8379-.9658-.3296-.2801-.6092-.6101-.8379-.9912-.3069-.5755-.4609-1.2089-.4609-1.8994 0-.6904.1541-1.3231.4609-1.8985.3453-.5753.8055-1.0163 1.3809-1.3232.5754-.3453 1.2088-.5186 1.8994-.5186.6904.0001 1.3231.1734 1.8984.5186.5755.3069 1.0173.7478 1.3243 1.3232.345.5753.5175 1.2082.5175 1.8985 0 .6904-.1724 1.324-.5175 1.8994-.2035.3814-.4677.7109-.7891.9912.3213.2634.5857.5845.7891.9658.345.5753.5175 1.2082.5175 1.8985 0 .6905-.1723 1.3239-.5175 1.8994-.2034.3813-.4678.71-.7891.9902.3215.2635.5856.5843.7891.9658.3452.5755.5175 1.2089.5175 1.8994 0 .6903-.1725 1.3232-.5175 1.8985-.2035.3814-.4677.7109-.7891.9912.1577.1292.3014.272.4307.4297.2801-.3211.61-.5838.9912-.7871.5753-.3453 1.208-.5185 1.8984-.5186.6906 0 1.324.1733 1.8994.5186.3809.2032.7016.4662.9649.7871.2801-.3211.6101-.5838.9912-.7871.5754-.3453 1.2088-.5186 1.8994-.5186.6905 0 1.3239.1733 1.8994.5186.5752.3069 1.0164.7479 1.3232 1.3232.3452.5753.5175 1.2081.5176 1.8984 0 .6906-.1723 1.324-.5176 1.8995-.3068.5753-.748 1.0163-1.3232 1.3232-.5755.3453-1.2089.5186-1.8994.5186-.6906 0-1.324-.1733-1.8994-.5186-.3813-.2034-.711-.4667-.9912-.7881-.2634.3212-.5837.5848-.9649.7881-.5754.3453-1.2088.5186-1.8994.5186-.6904-.0001-1.3231-.1734-1.8984-.5186-.3814-.2034-.711-.4667-.9912-.7881-.2635.3214-.5845.5847-.9659.7881-.5753.3452-1.208.5185-1.8984.5186-.6906 0-1.324-.1733-1.8994-.5186-.3814-.2034-.711-.4667-.9912-.7881-.2633.3212-.5838.5848-.9649.7881-.5754.3453-1.2089.5186-1.8994.5186s-1.3239-.1733-1.8994-.5186c-.3759-.2006-.7018-.4592-.9795-.7744-.2613.315-.5783.5739-.9541.7744-.5755.3453-1.2089.5186-1.8994.5186-.6904-.0001-1.3231-.1734-1.8984-.5186-.3814-.2034-.711-.4667-.9913-.7881-.2634.3214-.5844.5847-.9658.7881-.5753.3452-1.208.5185-1.8984.5186-.6906 0-1.324-.1733-1.8994-.5186-.3814-.2034-.711-.4667-.9912-.7881-.2633.3212-.5838.5848-.9649.7881-.5754.3453-1.2089.5186-1.8994.5186s-1.324-.1733-1.8994-.5186c-.3813-.2034-.711-.4667-.9912-.7881-.2633.3212-.5837.5848-.9649.7881-.5754.3453-1.2088.5186-1.8994.5186-.6904-.0001-1.3231-.1734-1.8984-.5186-.3814-.2034-.711-.4667-.9912-.7881-.2635.3214-.5845.5847-.9659.7881-.5753.3452-1.208.5185-1.8984.5186-.6905 0-1.3239-.1733-1.8994-.5186-.3762-.2006-.7027-.459-.9805-.7744-.2611.3148-.5775.574-.9531.7744-.5754.3453-1.2089.5186-1.8994.5186-.6906 0-1.324-.1733-1.8994-.5186-.3813-.2034-.711-.4667-.9912-.7881-.2634.3212-.5837.5848-.9649.7881-.5754.3453-1.2088.5186-1.8994.5186-.6904-.0001-1.3231-.1734-1.8984-.5186-.3814-.2034-.711-.4667-.9912-.7881-.2635.3214-.5845.5847-.9659.7881-.5753.3452-1.208.5185-1.8984.5186-.6905 0-1.324-.1733-1.8994-.5186-.3814-.2034-.711-.4667-.9912-.7881-.2634.3213-.5845.5847-.9658.7881-.5754.3452-1.208.5185-1.89848.5186-.69055 0-1.32396-.1733-1.89942-.5186-.57527-.3069-1.03566-.7479-1.38086-1.3232-.30688-.5755-.45996-1.2089-.45996-1.8995.00007-.6903.15317-1.3231.45996-1.8984.34519-.5753.80561-1.0163 1.38086-1.3232.57546-.3453 1.20887-.5186 1.89942-.5186.69048 0 1.32308.1734 1.89848.5186.3811.2032.7025.466.9658.7871.2801-.3211.61-.5838.9912-.7871.5754-.3453 1.2089-.5186 1.8994-.5186.6904.0001 1.3231.1734 1.8984.5186.3812.2033.7025.466.9659.7871.2801-.3211.61-.5838.9912-.7871.5753-.3452 1.208-.5185 1.8984-.5186.6906 0 1.324.1733 1.8994.5186.3809.2032.7016.4662.9649.7871.1375-.1576.2874-.3005.4492-.4297-.3298-.2802-.6102-.61-.8389-.9912-.3067-.5753-.4599-1.2081-.4599-1.8985 0-.6905.153-1.3239.4599-1.8994.2288-.3812.5091-.7024.8389-.9658-.1618-.1375-.3118-.2864-.4492-.4482-.2633.3296-.5838.6102-.9649.8388-.5754.3069-1.2088.46-1.8994.46-.6903 0-1.3231-.1532-1.8984-.46-.3813-.2287-.711-.5091-.9912-.8388-.2634.3297-.5846.6101-.9659.8388-.5753.3068-1.2081.4599-1.8984.46-.6905 0-1.324-.1531-1.8994-.46-.3813-.2287-.711-.509-.9912-.8388-.2634.3297-.5847.6101-.9658.8388-.5754.3068-1.2081.46-1.89848.46-.69055 0-1.32396-.1531-1.89942-.46-.57529-.3452-1.03564-.8055-1.38086-1.3808-.30691-.5755-.45996-1.2089-.45996-1.8994.00002-.6904.15321-1.3232.45996-1.8985.34524-.5754.80549-1.0173 1.38086-1.3242.57546-.3453 1.20887-.5176 1.89942-.5176.69038 0 1.32308.1725 1.89848.5176.3811.2033.7024.4669.9658.7881.2802-.3213.6099-.5847.9912-.7881.5754-.3452 1.2089-.5176 1.8994-.5176.6903.0001 1.3231.1725 1.8984.5176.3813.2033.7025.4669.9659.7881.2802-.3212.6099-.5848.9912-.7881.5753-.3451 1.2081-.5175 1.8984-.5176.6906 0 1.324.1723 1.8994.5176.3811.2033.7015.467.9649.7881.1375-.1576.2874-.3004.4492-.4297-.3298-.2802-.6101-.6099-.8389-.9912-.3069-.5755-.4599-1.2089-.4599-1.8994 0-.6903.1531-1.3232.4599-1.8985.3452-.5753.8056-1.0163 1.3809-1.3232.5754-.3453 1.2088-.5186 1.8994-.5186.6905.0001 1.324.1733 1.8994.5186.5752.3069 1.0164.748 1.3232 1.3232.3452.5753.5176 1.2082.5176 1.8985 0 .6905-.1723 1.324-.5176 1.8994-.2034.3815-.4675.7109-.789.9912.3214.2635.5856.5844.789.9658.3451.5753.5176 1.2081.5176 1.8985 0 .6905-.1723 1.3239-.5176 1.8994-.2034.3813-.4677.71-.789.9902.3215.2635.5855.5843.789.9658.3453.5755.5176 1.2089.5176 1.8994 0 .6904-.1725 1.3232-.5176 1.8985-.2034.3814-.4676.7109-.789.9912.1531.1254.2926.2638.4189.416.2777-.3152.6045-.5729.9805-.7734.5755-.3453 1.2089-.5186 1.8994-.5186.6904.0001 1.3231.1734 1.8984.5186.3812.2033.7025.466.9659.7871.2801-.3211.61-.5838.9912-.7871.5754-.3452 1.208-.5185 1.8984-.5186.6906 0 1.324.1733 1.8994.5186.381.2032.7016.4662.9649.7871.1375-.1576.2874-.3005.4492-.4297-.3297-.2802-.6102-.61-.8389-.9912-.3067-.5753-.4599-1.2081-.4599-1.8985 0-.6905.153-1.3239.4599-1.8994.2288-.3812.5091-.7024.8389-.9658-.3296-.2801-.6102-.6092-.8389-.9902-.3069-.5755-.4599-1.2089-.4599-1.8994 0-.6904.1532-1.3232.4599-1.8985.2287-.3812.5092-.7025.8389-.9658-.3298-.2802-.6101-.6099-.8389-.9912-.3069-.5755-.4599-1.2089-.4599-1.8994 0-.6903.1531-1.3232.4599-1.8985.2288-.3812.5091-.7024.8389-.9658-.162-.1376-.3116-.2872-.4492-.4492-.2634.3298-.5836.6111-.9649.8398-.5754.3069-1.2089.46-1.8994.46-.6903 0-1.3231-.1532-1.8984-.46-.3814-.2288-.711-.5099-.9912-.8398-.2635.3299-.5845.611-.9659.8398-.5752.3068-1.2081.4599-1.8984.46-.6905 0-1.324-.1531-1.8994-.46-.5755-.3452-1.0356-.8063-1.3809-1.3818-.3068-.5753-.4609-1.208-.4609-1.8984 0-.6906.154-1.324.4609-1.8994.3453-.57537.8055-1.01642 1.3809-1.32329.5755-.34527 1.2089-.51757 1.8994-.51757.6904.00006 1.3231.17239 1.8984.51757.3812.20326.7025.46608.9659.78711.2801-.32103.6101-.58385.9912-.78711.5753-.34516 1.208-.51753 1.8984-.51757.6906 0 1.324.1723 1.8994.51757.3809.20318.7016.46627.9649.78711.2801-.32108.6101-.58381.9912-.78711.5754-.34527 1.2089-.51757 1.8994-.51757zm-40.25977 17.26366c.69055 0 1.32396.1723 1.89942.5176.5753.3069 1.01637.7479 1.32324 1.3232.34527.5755.51758 1.2089.51758 1.8994-.00004.6904-.17242 1.3231-.51758 1.8985-.30691.5754-.74778 1.0365-1.32324 1.3818-.57545.3069-1.20888.46-1.89942.46-.69028-.0001-1.32315-.1533-1.89843-.46-.57546-.3453-1.036565-.8064-1.381839-1.3818-.306721-.5753-.45992908-1.2082-.459961-1.8985 0-.6905.153058-1.3239.459961-1.8994.345274-.5754.806379-1.0163 1.381839-1.3232.57534-.3452 1.20806-.5176 1.89843-.5176zm80.51957-11.5098c.6904.0001 1.323.1734 1.8984.5186.5755.3069 1.0173.7478 1.3242 1.3232.3451.5753.5175 1.2082.5176 1.8985 0 .6904-.1724 1.324-.5176 1.8994-.3069.5754-.7487 1.0356-1.3242 1.3808-.5753.3069-1.208.4609-1.8984.461-.6906 0-1.324-.154-1.8994-.461-.5754-.3452-1.0357-.8054-1.3809-1.3808-.3069-.5755-.4609-1.2089-.4609-1.8994 0-.6904.1541-1.3231.4609-1.8985.3452-.5753.8055-1.0163 1.3809-1.3232.5754-.3453 1.2088-.5186 1.8994-.5186zm-63.2559-5.75386c.6906 0 1.324.1723 1.8994.51757.5753.30688 1.0164.74794 1.3233 1.32329.3452.5754.5185 1.2088.5185 1.8994 0 .6904-.1734 1.3231-.5185 1.8984-.3069.5755-.7478 1.0366-1.3233 1.3818-.5754.3069-1.2089.46-1.8994.46-.6903 0-1.3232-.1532-1.8984-.46-.3814-.2288-.711-.5099-.9912-.8398-.2635.3299-.5845.611-.9659.8398-.5752.3068-1.2081.4599-1.8984.46-.6905 0-1.324-.1531-1.8994-.46-.3814-.2288-.7109-.5098-.9912-.8398-.2634.3299-.5845.611-.9658.8398-.5753.3067-1.2082.46-1.89848.46-.69055 0-1.32396-.153-1.89942-.46-.57543-.3452-1.03559-.8064-1.38086-1.3818-.30677-.5753-.45992-1.2081-.45996-1.8984 0-.6906.15305-1.324.45996-1.8994.34521-.57536.80558-1.0164 1.38086-1.32329.57546-.34527 1.20887-.51757 1.89942-.51757.69038.00001 1.32308.17243 1.89848.51757.381.20323.7025.46614.9658.78711.2801-.32108.6101-.58383.9912-.78711.5754-.34527 1.2089-.51757 1.8994-.51757.6904.00006 1.3231.17239 1.8984.51757.3811.20326.7025.46607.9659.78711.2801-.32103.6101-.58386.9912-.78711.5753-.34516 1.208-.51753 1.8984-.51757zm40.2373 0c.6905 0 1.324.17231 1.8994.51757.5753.30689 1.0164.74796 1.3233 1.32329.3452.5754.5175 1.2088.5175 1.8994 0 .6903-.1724 1.3231-.5175 1.8984-.3069.5754-.7479 1.0366-1.3233 1.3818-.5754.3069-1.2089.46-1.8994.46s-1.3239-.153-1.8994-.46c-.5754-.3452-1.0356-.8064-1.3809-1.3818-.3067-.5753-.4599-1.2081-.4599-1.8984 0-.6906.153-1.324.4599-1.8994.3452-.57535.8056-1.01639 1.3809-1.32329.5755-.34527 1.2089-.51757 1.8994-.51757zm17.2637 0c.6905 0 1.3239.1723 1.8994.51757.5752.30689 1.0164.74796 1.3232 1.32329.3453.5754.5176 1.2088.5176 1.8994 0 .6903-.1724 1.3231-.5176 1.8984-.3068.5754-.7478 1.0366-1.3232 1.3818-.5755.307-1.2089.46-1.8994.46-.6906 0-1.324-.153-1.8994-.46-.3815-.2288-.7109-.5098-.9912-.8398-.2634.3298-.5836.6111-.9649.8398-.5754.3069-1.2089.46-1.8994.46-.6903 0-1.3232-.1532-1.8984-.46-.5755-.3452-1.0366-.8063-1.3819-1.3818-.3067-.5753-.4599-1.2082-.4599-1.8984 0-.6906.153-1.324.4599-1.8994.3453-.5755.8064-1.01638 1.3819-1.32329.5753-.34517 1.208-.51752 1.8984-.51757.6906 0 1.324.1723 1.8994.51757.3809.20318.7016.46627.9649.78711.2801-.32108.6101-.58381.9912-.78711.5754-.34527 1.2088-.51757 1.8994-.51757zm-34.5049-8.63184c.6905.00000763 1.324.172312 1.8994.517578.5752.306891 1.0164.747952 1.3233 1.323242.3452.57546.5175 1.20887.5175 1.89941 0 .69034-.1724 1.32314-.5175 1.89844-.3069.57541-.7479 1.03657-1.3233 1.38184-.5754.3069-1.2089.45995-1.8994.45996-.6905 0-1.324-.15305-1.8994-.45996-.5754-.34527-1.0356-.80641-1.3809-1.38184-.3067-.5753-.4599-1.2081-.4599-1.89844 0-.69054.153-1.32395.4599-1.89941.3452-.57531.8056-1.016349 1.3809-1.323242.5754-.345274 1.2089-.517578 1.8994-.517578z" fill="#fff" fill-rule="evenodd"/></svg>
