<svg width="70" height="70" xmlns="http://www.w3.org/2000/svg"><defs><linearGradient x1="-.227%" y1="49.957%" x2="115.044%" y2="49.957%" id="a"><stop stop-color="#ED358C" offset="0%"/><stop stop-color="#E9388C" offset="15.5%"/><stop stop-color="#DE418C" offset="29.7%"/><stop stop-color="#CC508C" offset="43.3%"/><stop stop-color="#B2658D" offset="56.6%"/><stop stop-color="#90808D" offset="69.7%"/><stop stop-color="#67A18E" offset="82.6%"/><stop stop-color="#37C78F" offset="95.1%"/><stop stop-color="#22D88F" offset="100%"/></linearGradient><linearGradient x1="54.48%" y1="17.441%" x2="44.116%" y2="151.583%" id="b"><stop stop-color="#22D88F" offset="9.1%"/><stop stop-color="#029DE0" offset="90.3%"/></linearGradient><linearGradient x1="93.055%" y1="9.957%" x2="-9.596%" y2="113.157%" id="c"><stop stop-color="#22D88F" offset="9.1%"/><stop stop-color="#029DE0" offset="90.3%"/></linearGradient><linearGradient x1="32.84%" y1="48.817%" x2="92.978%" y2="56.523%" id="d"><stop stop-color="#22D88F" offset="9.1%"/><stop stop-color="#029DE0" offset="90.3%"/></linearGradient></defs><g fill-rule="nonzero" fill="none"><path fill="url(#a)" d="M26.9 28.4l-4.6 1.9L26.4 0l16.2 8.8z"/><path fill="url(#b)" d="M24.3 42l2.4-42L6.5 12.7 0 51.5z"/><path fill="url(#c)" d="M68.6 21l-9-18.3-17 6.1-12.5 13.9L0 51.5 22.7 68l28.5-25.7z"/><path fill="url(#d)" d="M29.4 29.9l-3.9 24 16 12.3L59 70l11-25z"/><path fill="#000" d="M13.4 13.4h43.2v43.2H13.4z"/><path fill="#FFF" d="M17.5 48.5h16.2v2.7H17.5zM17.2 28.1c0-5.1 3.8-9.3 9.3-9.3 3.4 0 5.4 1.1 7.1 2.8l-2.5 2.9c-1.4-1.3-2.8-2-4.6-2-3 0-5.2 2.5-5.2 5.6V28c0 3.1 2.1 5.6 5.2 5.6 2 0 3.3-.8 4.7-2.1l2.5 2.5c-1.8 2-3.9 3.2-7.3 3.2-5.3.1-9.2-4-9.2-9.1M36.4 19.1h3.9v14.6h7.8V37H36.4z"/></g></svg>