<svg xmlns="http://www.w3.org/2000/svg" fill="none" viewBox="0 0 160 160"><g clip-path="url(#clip0)"><path fill="url(#paint0_linear)" d="M102.833 0L106 65 25 97 0 32.333 102.833 0z"/><path fill="#21D789" d="M160 38L90 68.333 102.833 0 160 38z"/><path fill="url(#paint1_linear)" d="M85.833 53L160 38v70.167l-51 19.167-20.834-19.001L85.833 53z"/><path fill="url(#paint2_linear)" d="M55 32.5l51.171 7.917L160 107.543 108.331 127.5l-19.937-19.792L55 32.5z"/><path fill="url(#paint3_linear)" d="M33 0l73 40.333L80.833 160h-42.5L1.5 122 33 0z"/><path fill="url(#paint4_linear)" d="M128.75 31.25h-97.5v97.5h97.5v-97.5z"/><path fill="#fff" d="M78.375 111.958H42.083v5.959h36.292v-5.959zM42.5 43.75h14.255c11.565 0 19.366 7.8 19.366 18.02 0 10.221-7.8 18.29-19.366 18.29l-14.255.27V43.75zm8.069 7.531v21.786h6.186c6.455 0 11.028-4.303 11.028-10.758 0-6.456-4.304-11.028-11.028-11.028H50.57zM80 74.8l4.713-5.687c3.25 2.762 6.825 4.387 10.887 4.387 3.25 0 5.362-1.3 5.362-3.412v-.163c0-2.112-1.3-3.087-7.312-4.712-7.475-1.788-12.188-3.9-12.188-11.213v-.162c0-6.663 5.363-11.05 12.838-11.05 5.362 0 9.912 1.625 13.65 4.712l-4.225 6.013c-3.25-2.275-6.5-3.575-9.587-3.575-3.088 0-4.713 1.462-4.713 3.25v.162c0 2.438 1.625 3.25 7.963 4.875 7.475 1.95 11.699 4.55 11.699 11.05v.163c0 7.312-5.524 11.375-13.487 11.375C90.075 80.65 84.388 78.7 80 74.8z"/></g><defs><linearGradient id="paint0_linear" x1="118.662" x2="12.607" y1="48.537" y2="48.537" gradientUnits="userSpaceOnUse"><stop stop-color="#21D789"/><stop offset=".917" stop-color="#FCF84A"/></linearGradient><linearGradient id="paint1_linear" x1="122.892" x2="122.892" y1="46.19" y2="178.551" gradientUnits="userSpaceOnUse"><stop stop-color="#21D789"/><stop offset="1" stop-color="#087CFA"/></linearGradient><linearGradient id="paint2_linear" x1="210.443" x2="53.987" y1="166.793" y2="39.294" gradientUnits="userSpaceOnUse"><stop offset=".105" stop-color="#21D789"/><stop offset=".967" stop-color="#087CFA"/></linearGradient><linearGradient id="paint3_linear" x1="138.334" x2="28.056" y1="-12.316" y2="112.666" gradientUnits="userSpaceOnUse"><stop offset=".235" stop-color="#21D789"/><stop offset=".74" stop-color="#087CFA"/></linearGradient><linearGradient id="paint4_linear" x1="79.87" x2="79.87" y1="7.553" y2="94.991" gradientUnits="userSpaceOnUse"><stop offset=".084" stop-color="#878585"/><stop offset=".538"/></linearGradient><clipPath id="clip0"><path fill="#fff" d="M0 0h160v160H0z"/></clipPath></defs></svg>