<svg width="70" height="70" xmlns="http://www.w3.org/2000/svg"><defs><linearGradient x1="47.004%" y1="51.629%" x2="58.831%" y2="30.404%" id="a"><stop stop-color="#9775F8" offset="0%"/><stop stop-color="#22D88F" offset="95.2%"/></linearGradient><linearGradient x1="35.261%" y1="24.637%" x2="50.42%" y2="80.36%" id="b"><stop stop-color="#9775F8" offset="0%"/><stop stop-color="#689CCE" offset="21.4%"/><stop stop-color="#42BDAC" offset="42.3%"/><stop stop-color="#2BD197" offset="59%"/><stop stop-color="#22D88F" offset="69.4%"/></linearGradient><linearGradient x1="9.28%" y1="26.85%" x2="125.453%" y2="72.648%" id="c"><stop stop-color="#22D88F" offset="7.5%"/><stop stop-color="#9775F8" offset="72%"/></linearGradient><linearGradient x1="0%" y1="50%" x2="94.116%" y2="50%" id="d"><stop stop-color="#22D88F" offset="7.5%"/><stop stop-color="#5AB0B4" offset="26.6%"/><stop stop-color="#B86CF2" offset="56.5%"/><stop stop-color="#FF59E6" offset="100%"/></linearGradient></defs><g fill-rule="nonzero" fill="none"><path fill="#9775F8" d="M65.5 10.9L70 39.5l-17 9.9-3.2-16.2z"/><path fill="url(#a)" d="M65.5 10.9L40.5 0 19.4 17.5l30.4 15.7z"/><path fill="url(#b)" d="M47.3 70L18 30.6l-8.7 5.8L.6 62.5z"/><path fill="url(#c)" d="M52.8 50.1L32.3 36.6 0 32.3 47.3 70z"/><path fill="url(#d)" d="M0 .5v31.8l60.8 20.9 4.7-42.3z"/><path fill="#000" d="M13.4 13.4h43.2v43.2H13.4z"/><g fill="#FFF"><path d="M17.8 19h7c5.6 0 9.5 3.9 9.5 8.9v.1c0 5-3.9 8.9-9.5 8.9h-7V19zm3.9 3.6v10.8h3c3.2 0 5.4-2.2 5.4-5.3V28c0-3.2-2.2-5.4-5.4-5.4h-3zM35 28c0-5.1 4-9.3 9.4-9.3 3.2 0 5.2.9 7 2.5l-2.5 3c-1.4-1.2-2.6-1.8-4.7-1.8-2.9 0-5.1 2.5-5.1 5.6 0 3.3 2.2 5.7 5.4 5.7 1.4 0 2.7-.4 3.7-1.1V30h-4v-3.4H52v7.8c-1.8 1.6-4.4 2.8-7.6 2.8-5.6 0-9.4-3.9-9.4-9.2z"/></g><path fill="#FFF" d="M17.4 48.5h16.2v2.7H17.4z"/></g></svg>